<svg width="50" height="50" viewBox="0 0 50 50" fill="none" xmlns="http://www.w3.org/2000/svg">
<rect x="0.5" y="0.5" width="49" height="49" rx="24.5" stroke="white" stroke-opacity="0.125"/>
<path d="M29.677 19.3391H20.323C18.4878 19.3391 17 20.8269 17 22.6621V27.3381C17 29.1734 18.4878 30.6611 20.323 30.6611H29.677C31.5122 30.6611 33 29.1734 33 27.3381V22.6621C33 20.8269 31.5122 19.3391 29.677 19.3391ZM27.4297 25.2276L23.0545 27.3143C22.9379 27.3699 22.8033 27.2849 22.8033 27.1558V22.852C22.8033 22.721 22.9415 22.6361 23.0583 22.6953L27.4335 24.9124C27.5636 24.9783 27.5613 25.1649 27.4297 25.2276Z" fill="white"/>
</svg>
