<svg width="17" height="17" viewBox="0 0 17 17" fill="none" xmlns="http://www.w3.org/2000/svg">
<path d="M3.53125 6.49992C3.53125 4.30003 3.53125 3.20009 4.21467 2.51667C4.89808 1.83325 5.99803 1.83325 8.19792 1.83325C10.3978 1.83325 11.4977 1.83325 12.1812 2.51667C12.8646 3.20009 12.8646 4.30003 12.8646 6.49992V10.4999C12.8646 12.6998 12.8646 13.7997 12.1812 14.4832C11.4977 15.1666 10.3978 15.1666 8.19792 15.1666C5.99803 15.1666 4.89808 15.1666 4.21467 14.4832C3.53125 13.7997 3.53125 12.6998 3.53125 10.4999V6.49992Z" stroke="white" stroke-linecap="round"/>
<path d="M7.53125 13.1667H8.86458" stroke="white" stroke-linecap="round" stroke-linejoin="round"/>
<path d="M6.19922 1.83325L6.25855 2.18927C6.38714 2.96078 6.45143 3.34654 6.71601 3.58128C6.99202 3.82615 7.38329 3.83325 8.19922 3.83325C9.01515 3.83325 9.40642 3.82615 9.68242 3.58128C9.94702 3.34654 10.0113 2.96078 10.1399 2.18927L10.1992 1.83325" stroke="white" stroke-linejoin="round"/>
</svg>
