<svg width="40" height="40" viewBox="0 0 40 40" fill="none" xmlns="http://www.w3.org/2000/svg">
<path d="M14.8516 0.125C13.8907 0.382812 13.0235 1.05469 12.5782 1.89844L12.3829 2.26562H10.6016H8.82038L8.63288 2.46094C8.49225 2.59375 8.43756 2.73438 8.43756 2.96094V3.27344L5.14069 3.29688C1.85162 3.32031 1.836 3.32031 1.42194 3.50781C0.875062 3.75781 0.304749 4.38281 0.132874 4.92969C0.00787441 5.32031 6.19097e-05 6.57031 0.0156869 21.7969L0.0391244 38.2422L0.203187 38.6016C0.421937 39.0703 0.929749 39.5781 1.3985 39.7969L1.75787 39.9609H15.7423H29.7266L30.1094 39.7734C30.6016 39.5312 31.0157 39.1172 31.2579 38.625C31.4376 38.2656 31.4454 38.1484 31.4688 36.6641L31.4923 35.0938L33.0313 36.5938C35.8282 39.3203 36.3048 39.7578 36.5157 39.8438C36.8204 39.9531 37.3907 39.9375 37.6407 39.8125C37.9844 39.6328 39.7501 37.7891 39.8829 37.4766C39.9454 37.3203 40.0001 37.0859 40.0001 36.9609C40.0001 36.3984 39.8204 36.1875 37.3829 33.8281C36.0704 32.5625 34.9219 31.4844 34.8204 31.4297C34.7188 31.3672 34.4376 31.3359 34.1251 31.3438L33.5938 31.3672L32.7423 30.5156L31.8907 29.6719L32.1954 29.0703C32.8829 27.7344 33.1719 26.3359 33.1016 24.7109C33.0391 23.2188 32.6251 21.8438 31.8985 20.7031L31.5235 20.1172L31.4844 12.5781L31.4454 5.03906L31.2344 4.64844C30.9688 4.14844 30.5313 3.72656 30.0391 3.5C29.6563 3.32031 29.6016 3.32031 26.3516 3.29688L23.0469 3.27344V2.96094C23.0469 2.73438 22.9923 2.59375 22.8516 2.46094L22.6641 2.26562H20.8673H19.0704L18.8907 1.89062C18.6563 1.40625 17.9454 0.695312 17.4376 0.4375C16.5938 0.0078125 15.6876 -0.101562 14.8516 0.125ZM16.4923 1.38281C17.0704 1.57031 17.7344 2.22656 17.9219 2.78906C18.1563 3.5 18.1954 3.51562 20.1251 3.51562H21.7969V5.15625V6.79688H15.7423H9.68756V5.15625V3.51562H11.3594C13.3048 3.51562 13.3048 3.51562 13.586 2.74219C13.711 2.38281 13.8516 2.1875 14.1876 1.88281C14.8516 1.27344 15.6251 1.10938 16.4923 1.38281ZM8.43756 5.11719V5.70312H5.69537C2.90631 5.70312 2.74225 5.71875 2.5235 6.00781C2.44537 6.10156 2.42975 9.57812 2.42194 21.6641V37.1953L2.61725 37.3828L2.80475 37.5781H15.7423H28.6798L28.8673 37.3828L29.0626 37.1953V34.8594V32.5234L29.3673 32.3203L29.6641 32.1172L29.9532 32.4141L30.2423 32.7109L30.2188 35.375C30.1954 37.9219 30.1876 38.0469 30.0313 38.2578C29.9454 38.375 29.7501 38.5391 29.6016 38.6172C29.3516 38.7422 28.5626 38.75 15.6485 38.7344L1.961 38.7109L1.74225 38.5469C1.62506 38.4609 1.461 38.2656 1.39069 38.1172C1.25787 37.8672 1.25006 36.9219 1.25006 21.6562C1.25006 7 1.26569 5.42969 1.37506 5.1875C1.67975 4.55469 1.7735 4.53906 5.37506 4.53125H8.43756V5.11719ZM29.6798 4.72656C29.8204 4.8125 30.0079 5.00781 30.086 5.15625C30.2266 5.41406 30.2344 5.73438 30.2344 12.0078C30.2344 15.6328 30.2032 18.5938 30.1719 18.5938C30.1329 18.5938 30.0391 18.5234 29.961 18.4375C29.8829 18.3516 29.6485 18.1719 29.4454 18.0391L29.0626 17.7969V11.9766V6.15625L28.836 5.92969L28.6094 5.70312H25.8282H23.0469V5.11719V4.52344L26.2344 4.54688C29.2501 4.57031 29.4298 4.57812 29.6798 4.72656ZM8.43756 7.25781C8.43756 7.67188 8.50006 7.79688 8.75788 7.92969C8.94538 8.03125 9.961 8.04688 15.7423 8.04688C20.7344 8.04688 22.5548 8.02344 22.6798 7.95312C22.9532 7.8125 23.0391 7.64062 23.0469 7.28125V6.95312H25.4298H27.8126V12.0312C27.8126 14.8203 27.7969 17.1094 27.7735 17.1094C27.7579 17.1094 27.5626 17.0391 27.3516 16.9531C27.1329 16.8672 26.5938 16.7266 26.1563 16.6328C25.1173 16.4219 23.3673 16.4531 22.3751 16.7109C20.8438 17.0938 19.3907 17.9375 18.2266 19.1172L17.5079 19.8438H16.7188C15.9844 19.8438 15.9141 19.8594 15.7423 20.0391C15.3204 20.4531 15.6329 21.0078 16.3126 21.0781C16.5391 21.0938 16.7188 21.125 16.7188 21.1328C16.7188 21.1406 16.6329 21.3438 16.5313 21.5703C16.4298 21.8047 16.2501 22.2891 16.1407 22.6484C16.0235 23.0078 15.8438 23.4062 15.7423 23.5312C15.5157 23.7969 15.5079 23.9062 15.6563 24.2031C15.7188 24.3359 15.7735 24.8125 15.8048 25.5078C15.8438 26.4922 15.9844 27.3359 16.211 27.9141C16.2501 28.0156 16.2266 28.0469 16.1094 28.0469C15.8751 28.0469 15.6329 28.2891 15.5782 28.5703C15.5391 28.7812 15.5704 28.8594 15.7657 29.0625C15.9688 29.2656 16.0626 29.2969 16.4219 29.2969L16.836 29.3047L17.0938 29.75C17.2344 30 17.5938 30.4844 17.8985 30.8359L18.4376 31.4766L17.1798 31.5L15.9219 31.5234L15.7266 31.75C15.5001 32.0234 15.5235 32.375 15.7891 32.5938C15.9376 32.7188 16.1719 32.7344 18.0938 32.7344H20.2266L20.7579 33C22.7657 34 25.4532 34.0938 27.7032 33.2266C27.7969 33.1953 27.8126 33.4531 27.8126 34.7578V36.3281H15.7423H3.67194V21.6406V6.95312H6.05475H8.43756V7.25781ZM26.5235 18C29.0235 18.75 30.961 20.7422 31.6563 23.2656C31.9063 24.1719 31.9063 26.1094 31.6563 27.0156C31.2891 28.375 30.6407 29.4688 29.6173 30.4688C28.7969 31.2656 27.9376 31.7969 26.8985 32.1562C25.2032 32.7344 23.7032 32.7344 22.0079 32.1562C19.7032 31.3672 17.9063 29.4297 17.2501 27.0156C17.0001 26.1094 17.0001 24.1719 17.2501 23.2656C18.0001 20.5391 20.1719 18.4766 22.9376 17.8594C23.3282 17.7734 23.7969 17.7422 24.6485 17.7656C25.6407 17.7891 25.9298 17.8203 26.5235 18ZM32.4219 32.5391L32.1563 32.8125L31.3985 32.0625L30.6407 31.3047L30.8829 31L31.1251 30.6953L31.9063 31.4766L32.6876 32.2656L32.4219 32.5391ZM36.5313 34.7422C37.7501 35.9297 38.7423 36.9297 38.7344 36.9531C38.6798 37.0859 37.1251 38.6719 37.0469 38.6719C36.9766 38.6719 35.0391 36.8359 33.0157 34.8438L32.4766 34.3125L33.2891 33.4453C33.7344 32.9688 34.1485 32.5781 34.2032 32.5781C34.2579 32.5781 35.3048 33.5547 36.5313 34.7422Z" fill="#289A7B"/>
<path d="M15.2347 2.48438C14.93 2.79688 14.9066 3.24219 15.1878 3.57031C15.3441 3.75 15.4378 3.78906 15.7425 3.78906C16.0472 3.78906 16.1409 3.75 16.2972 3.57031C16.7112 3.08594 16.4456 2.375 15.805 2.28906C15.5159 2.25 15.4534 2.27344 15.2347 2.48438Z" fill="#289A7B"/>
<path d="M7.33588 11.1172C7.10932 11.2422 6.91401 11.4297 6.75776 11.6797L6.52338 12.0547L6.49994 13.7031C6.46088 15.7343 6.52338 16.0547 6.99213 16.5312C7.18744 16.7187 7.45307 16.8984 7.62494 16.9453C8.03901 17.0625 11.1484 17.0547 11.4921 16.9453C11.8984 16.8047 12.2499 16.5078 12.4374 16.1484C12.5781 15.8672 12.6093 15.6562 12.6406 14.6718L12.6718 13.5312L13.5312 12.7656C13.9999 12.3437 14.4218 11.9375 14.4609 11.8593C14.6718 11.4687 14.3593 10.9375 13.9218 10.9375C13.7499 10.9375 13.5468 11.0625 13.1249 11.4453L12.5546 11.9531L12.4218 11.7422C12.2343 11.4375 11.8749 11.1172 11.6171 11.0234C11.4843 10.9687 10.664 10.9375 9.53901 10.9375C7.74213 10.9375 7.67182 10.9453 7.33588 11.1172ZM11.3281 12.3906C11.4921 12.8203 11.4296 12.9843 10.9609 13.414L10.5078 13.8125L9.91401 13.2343C9.42182 12.7656 9.26557 12.6562 9.07026 12.6562C8.73432 12.6562 8.43744 12.9531 8.43744 13.2968C8.43744 13.5156 8.55463 13.664 9.32026 14.4297C10.3515 15.4609 10.4843 15.5078 11.0078 15.039C11.1718 14.8906 11.3281 14.7656 11.3593 14.7656C11.4609 14.7656 11.3984 15.4453 11.2812 15.6093C11.164 15.7734 11.1249 15.7812 9.59369 15.7812C8.24213 15.7812 7.99994 15.7656 7.87494 15.6484C7.74994 15.5312 7.73432 15.375 7.73432 14.0078C7.73432 13.1093 7.76557 12.4297 7.81244 12.3359C7.89057 12.1953 7.99213 12.1875 9.57807 12.1875H11.2499L11.3281 12.3906Z" fill="#289A7B"/>
<path d="M16.0391 11.6172C15.8203 11.6562 15.5469 12 15.5469 12.2266C15.5469 12.3203 15.6172 12.4922 15.7109 12.6094L15.8672 12.8125H20.2266C24.9375 12.8125 24.8438 12.8203 24.9531 12.3906C25.0313 12.0859 24.875 11.8047 24.5703 11.6797C24.3438 11.5781 23.6328 11.5625 20.2578 11.5703C18.0313 11.5781 16.1328 11.6016 16.0391 11.6172Z" fill="#289A7B"/>
<path d="M15.8517 15.1562C15.7814 15.1953 15.6798 15.3359 15.6251 15.4688C15.5001 15.7656 15.6251 16.1094 15.9064 16.2422C16.0392 16.2969 16.9767 16.3281 18.8751 16.3281H21.6486L21.8361 16.1328C21.9611 16.0156 22.0314 15.8516 22.0314 15.7031C22.0314 15.5547 21.9611 15.3906 21.8361 15.2734L21.6486 15.0781H18.8126C17.1798 15.0781 15.922 15.1172 15.8517 15.1562Z" fill="#289A7B"/>
<path d="M7.4612 19.25C7.11745 19.3984 6.66433 19.9375 6.56276 20.3203C6.50026 20.5313 6.48464 21.25 6.50026 22.375C6.5237 24.25 6.54714 24.3438 7.00808 24.7813C7.44558 25.1953 7.6487 25.2344 9.57058 25.2344C11.4534 25.2344 11.6956 25.1953 12.094 24.8203C12.5081 24.4375 12.6018 24.1016 12.6487 22.8828L12.6956 21.7422L13.5784 20.9375C14.094 20.4688 14.4768 20.0547 14.5081 19.9453C14.6175 19.4922 14.2268 19.0625 13.805 19.1719C13.6878 19.1953 13.3675 19.4375 13.0784 19.7031C12.6409 20.1172 12.555 20.1719 12.4925 20.0625C12.3128 19.7422 11.9768 19.4219 11.68 19.2891C11.4065 19.1641 11.1487 19.1406 9.53151 19.1484C8.19558 19.1484 7.63308 19.1719 7.4612 19.25ZM11.2346 20.4609C11.2971 20.4922 11.3596 20.6797 11.3831 20.8672C11.43 21.2031 11.4221 21.2109 10.969 21.6172L10.5081 22.0313L10.0003 21.5313C9.45339 21 9.25026 20.8594 8.98464 20.8594C8.73464 20.8594 8.43776 21.2031 8.43776 21.5C8.43776 21.7188 8.55495 21.8672 9.32058 22.6328C10.3518 23.6641 10.4612 23.7031 11.0315 23.2344L11.3675 22.9453L11.3909 23.2734C11.4065 23.4844 11.3675 23.6797 11.2893 23.7969L11.1721 23.9844H9.57058C8.22683 23.9844 7.9612 23.9688 7.85964 23.8594C7.75808 23.7578 7.73464 23.5 7.73464 22.2188C7.73464 21.3125 7.76589 20.6328 7.81276 20.5391C7.89089 20.3984 7.99245 20.3906 9.51589 20.3906C10.4065 20.3906 11.18 20.4219 11.2346 20.4609Z" fill="#289A7B"/>
<path d="M7.46094 27.4922C7.0625 27.6719 6.67187 28.1094 6.57031 28.4922C6.46094 28.875 6.46094 31.9062 6.57031 32.2891C6.67187 32.6562 7.03906 33.0859 7.42969 33.2891C7.70312 33.4219 7.89844 33.4375 9.54687 33.4375C11.2891 33.4375 11.3906 33.4297 11.7187 33.2578C12.4531 32.8906 12.6484 32.375 12.6641 30.8281L12.6719 29.9609L13.6016 29.1172C14.3906 28.3984 14.5312 28.2344 14.5312 28.0391C14.5312 27.7188 14.4219 27.5391 14.1562 27.4297C13.8516 27.3047 13.6562 27.3906 13.0547 27.9375C12.5937 28.3594 12.5469 28.3828 12.4687 28.25C12.2656 27.8984 11.9766 27.625 11.6797 27.4922C11.4062 27.3672 11.1484 27.3438 9.57031 27.3438C8 27.3438 7.73437 27.3672 7.46094 27.4922ZM11.2812 28.7656C11.5078 29.0859 11.4375 29.3906 11.0781 29.7344C10.4531 30.3203 10.5391 30.3281 9.85156 29.6562C9.51562 29.3281 9.17969 29.0625 9.10937 29.0625C8.91406 29.0625 8.53906 29.2734 8.48437 29.4141C8.34375 29.7891 8.42969 29.9375 9.3125 30.8359C10.1094 31.6406 10.2109 31.7188 10.4609 31.7188C10.6562 31.7109 10.8281 31.6406 11.0156 31.4844C11.1641 31.3516 11.3125 31.25 11.3516 31.25C11.4687 31.25 11.3594 32.0391 11.2422 32.1172C11.1797 32.1562 10.4062 32.1875 9.51562 32.1875C7.99219 32.1875 7.89062 32.1797 7.8125 32.0391C7.76562 31.9453 7.73437 31.2656 7.73437 30.3594C7.73437 29.0781 7.75781 28.8203 7.85937 28.7188C7.96094 28.6094 8.22656 28.5938 9.57031 28.5938C11.125 28.5938 11.1641 28.5938 11.2812 28.7656Z" fill="#289A7B"/>
<path d="M23.1327 18.8672C19.8124 19.5938 17.5858 22.8203 18.1249 26.1484C18.5233 28.625 20.3202 30.6328 22.7811 31.3438C23.6639 31.6016 25.242 31.6016 26.1249 31.3438C29.0858 30.4922 30.9842 27.8594 30.8358 24.7969C30.6952 21.9141 28.6014 19.4766 25.742 18.8672C25.0624 18.7266 23.7967 18.7266 23.1327 18.8672ZM25.7342 20.1563C26.6639 20.3906 27.367 20.7969 28.0858 21.5234C29.1795 22.6094 29.6639 23.875 29.5858 25.4297C29.4764 27.5625 28.0936 29.375 26.0702 30.0547C25.5077 30.2422 25.3045 30.2656 24.453 30.2656C23.6014 30.2656 23.3983 30.2422 22.8358 30.0547C20.8124 29.375 19.4295 27.5625 19.3202 25.4297C19.242 23.875 19.7264 22.6094 20.8202 21.5234C22.1405 20.2031 23.9452 19.6953 25.7342 20.1563Z" fill="#289A7B"/>
</svg>
