<svg width="40" height="40" viewBox="0 0 40 40" fill="none" xmlns="http://www.w3.org/2000/svg">
<g clip-path="url(#clip0_32_950)">
<path d="M18.5153 0.0469856C18.3668 0.0626106 17.9059 0.117298 17.4997 0.164173C13.2184 0.648548 9.03871 2.70324 5.86684 5.8673C2.70278 9.03917 0.780901 12.9454 0.148088 17.5001C-0.00816198 18.6173 0.00746302 21.6173 0.179338 22.7345C0.882463 27.3126 2.76528 31.0548 5.94496 34.1954C9.31996 37.5235 13.5075 39.4845 18.2028 39.9142C27.4997 40.7814 36.195 35.0001 39.0543 26.0548C39.3903 25.0157 39.6793 23.7111 39.859 22.4611C39.984 21.5548 39.984 18.547 39.859 17.5782C39.6325 15.8907 38.984 13.3595 38.6871 13.0236C38.5309 12.8439 38.0309 12.8439 37.8746 13.0236C37.6559 13.2814 37.6637 13.4142 37.9371 14.2657C38.0856 14.7345 38.3121 15.6251 38.4371 16.2501C38.6715 17.4064 38.8746 19.2345 38.7887 19.3751C38.7575 19.422 37.8512 19.4532 36.3668 19.4532H33.9918L33.945 19.0001C33.734 16.9689 33.2731 15.3361 32.4606 13.7111C31.8278 12.4611 31.1247 11.4532 30.1637 10.4532C29.695 9.96105 29.4762 9.6798 29.5387 9.65636C29.6012 9.63293 29.9684 9.52355 30.3512 9.40636C31.2106 9.15636 33.0543 8.43761 33.7887 8.07043L34.3278 7.79699L34.5856 8.09386C35.0387 8.62511 35.7809 9.70324 36.2262 10.4689C36.7887 11.422 36.8434 11.4845 37.1637 11.4845C37.484 11.4845 37.734 11.2501 37.734 10.9532C37.734 10.547 36.6403 8.79699 35.5231 7.39855C32.4137 3.52355 27.9293 0.984486 22.8122 0.195423C22.0309 0.0782356 19.1247 -0.0233269 18.5153 0.0469856ZM19.3747 3.63292C19.3747 4.94542 19.3512 6.01574 19.32 6.01574C19.0543 6.01574 17.734 6.19542 17.2262 6.29699C16.2809 6.48449 14.984 6.92199 14.0075 7.38292C13.5231 7.6173 13.1247 7.76574 13.1247 7.71886C13.1247 7.56261 14.1403 5.60949 14.5543 4.97667C15.4684 3.57824 16.4918 2.51574 17.5153 1.91417C18.0153 1.6173 18.9293 1.25792 19.2028 1.25792L19.3747 1.25011V3.63292ZM21.3356 1.39855C23.2809 2.06261 24.9528 3.78917 26.3122 6.52355C27.0075 7.92199 27.0075 7.88292 26.2731 7.51574C24.6559 6.71105 23.0934 6.26574 21.0778 6.0548L20.6247 6.00792V3.62511C20.6247 0.921986 20.5622 1.12511 21.3356 1.39855ZM15.4372 2.03917C14.1637 3.20324 12.8122 5.33605 11.8747 7.66417C11.6715 8.1798 11.484 8.62511 11.4528 8.64855C11.3356 8.76574 8.82778 7.94542 7.39028 7.32042L6.4684 6.91417L7.1559 6.25792C9.05434 4.46886 11.5543 2.97667 14.0231 2.16417C14.8122 1.89855 15.6481 1.65636 15.8043 1.64855C15.8434 1.64074 15.6793 1.82042 15.4372 2.03917ZM25.2106 1.90636C28.1481 2.76574 31.1481 4.50011 33.07 6.46105L33.5231 6.92199L32.6012 7.32042C31.2262 7.91417 28.7887 8.72668 28.5856 8.65636C28.5465 8.64074 28.3356 8.20324 28.1247 7.6798C27.1872 5.34386 25.8356 3.19542 24.5622 2.03917C24.32 1.82042 24.1637 1.64074 24.2028 1.64074C24.2497 1.64074 24.7028 1.76574 25.2106 1.90636ZM22.2106 7.38292C24.8981 7.8673 27.3356 9.1798 29.2184 11.1486C31.0309 13.047 32.1403 15.2345 32.6325 17.8517C32.8121 18.8204 32.8121 21.1798 32.6325 22.1486C31.6246 27.5626 27.57 31.6251 22.1637 32.6329C21.0387 32.836 18.8122 32.8204 17.6715 32.5939C15.8747 32.2345 14.32 31.5939 12.7731 30.5626C11.6168 29.797 10.1325 28.2892 9.33559 27.0704C8.99965 26.5548 8.67153 26.086 8.60121 26.0314C8.29653 25.7814 7.73403 26.086 7.73403 26.5157C7.73403 26.9845 9.03871 28.8048 10.1637 29.9142C10.4293 30.1798 10.5309 30.3204 10.4606 30.3439C10.3981 30.3673 10.0387 30.4767 9.64809 30.5939C8.79653 30.8439 6.95278 31.5626 6.23403 31.922C5.94496 32.0704 5.68715 32.1876 5.67153 32.1876C5.64809 32.1876 5.33559 31.7892 4.97621 31.3048C2.81996 28.4298 1.5934 25.2423 1.24965 21.6564C1.21059 21.1954 1.17153 20.7736 1.17153 20.7189C1.17153 20.6486 1.71059 20.6251 3.58559 20.6251H6.00746L6.05434 21.0704C6.22621 22.6876 6.56996 24.1564 6.8434 24.4298C7.07778 24.6642 7.38246 24.6564 7.61684 24.4142C7.85903 24.1798 7.85903 24.1642 7.62465 23.2657C7.29653 22.0157 7.22621 21.4376 7.23403 19.9611C7.23403 18.4532 7.33559 17.6876 7.70278 16.4298C8.60903 13.2892 10.8668 10.4532 13.734 8.84386C15.32 7.96105 16.8434 7.47667 18.8278 7.23449C19.3825 7.16417 21.5465 7.25792 22.2106 7.38292ZM6.23403 8.07824C6.95278 8.43761 8.79653 9.15636 9.64809 9.40636C10.0387 9.52355 10.3981 9.63293 10.4606 9.65636C10.5231 9.6798 10.3043 9.96105 9.83559 10.4532C8.85121 11.4767 8.1559 12.4689 7.50746 13.7892C6.68715 15.4376 6.24965 17.0079 6.04653 19.0001L6.00746 19.4532H3.63246C2.14028 19.4532 1.24184 19.422 1.21059 19.3751C1.18715 19.3361 1.20278 18.8986 1.24184 18.4064C1.58559 14.7736 2.80434 11.5939 4.97621 8.68761C5.33559 8.21105 5.64809 7.81261 5.67153 7.81261C5.68715 7.81261 5.94496 7.9298 6.23403 8.07824ZM38.7887 21.1486C38.4996 24.3126 37.7653 26.8048 36.445 29.1407C35.8746 30.1485 34.4528 32.1876 34.32 32.1876C34.3043 32.1876 34.0934 32.086 33.8434 31.961C32.8043 31.4376 31.3825 30.9064 29.5387 30.3439C29.4684 30.3204 29.6559 30.0704 30.0934 29.6251C31.7965 27.8673 32.9528 25.7814 33.5465 23.3829C33.7184 22.7111 33.7887 22.2657 33.9528 20.9532L33.9918 20.6251H36.4137H38.8434L38.7887 21.1486ZM11.8747 32.3204C12.8122 34.6485 14.1637 36.8048 15.4372 37.9689C15.9372 38.422 15.9528 38.422 14.7653 38.0704C12.3981 37.3829 10.3747 36.3439 8.39809 34.8048C7.60121 34.1876 6.54653 33.2032 6.57778 33.1095C6.66371 32.8595 10.9059 31.297 11.3512 31.3517C11.4528 31.3595 11.6012 31.6329 11.8747 32.3204ZM29.359 31.5157C30.7262 31.9064 33.1715 32.836 33.3981 33.0626C33.5075 33.1642 32.3825 34.2189 31.2887 35.0392C29.3981 36.4532 27.4606 37.422 25.234 38.0704C24.0387 38.422 24.0622 38.422 24.5622 37.9689C25.9684 36.672 27.5856 33.9923 28.4606 31.461C28.5231 31.2892 28.5465 31.2892 29.359 31.5157ZM15.695 33.2814C16.5778 33.5704 17.8512 33.836 18.9293 33.9454L19.3747 33.9923V36.3751C19.3747 39.086 19.445 38.8751 18.6481 38.6017C17.109 38.0704 15.7965 36.922 14.5622 35.0314C14.1559 34.4142 13.1247 32.4298 13.1247 32.2735C13.1247 32.2345 13.484 32.3673 13.9293 32.586C14.3747 32.797 15.1637 33.1095 15.695 33.2814ZM26.609 32.8751C25.234 35.9142 23.4137 37.8907 21.3356 38.6017C20.5622 38.8751 20.6247 39.0782 20.6247 36.3751V33.9923L21.0778 33.9454C23.0856 33.7345 24.7184 33.2735 26.2965 32.4767C26.5934 32.3282 26.8512 32.211 26.859 32.2267C26.8747 32.2423 26.7653 32.5314 26.609 32.8751Z" fill="#289A7B"/>
<path d="M13.1479 12.2657C13.0542 12.3047 12.9448 12.4063 12.8979 12.4922C12.8433 12.5938 12.812 13.6563 12.812 15.5782C12.812 18.4141 12.8198 18.5235 12.9683 18.6719C13.2026 18.9063 13.6167 18.8828 13.8198 18.625C13.9761 18.4219 13.9839 18.3282 13.9839 15.5313V12.6407L13.7573 12.4141C13.5151 12.1719 13.4292 12.1563 13.1479 12.2657Z" fill="#289A7B"/>
<path d="M16.773 12.2739C16.3667 12.3676 15.937 12.602 15.687 12.8676C15.0542 13.5317 15.0855 14.6254 15.7573 15.2426C15.8745 15.3598 16.437 15.6332 16.9917 15.8598C18.0777 16.2973 18.437 16.5473 18.437 16.8754C18.437 17.7895 16.9058 17.9301 15.9605 17.1098C15.648 16.8364 15.4136 16.8129 15.1245 17.0395C14.7886 17.3051 14.8433 17.6411 15.2808 18.0473C15.8042 18.5239 16.3902 18.7661 17.1558 18.8129C17.6323 18.8364 17.898 18.8129 18.2105 18.7114C18.7027 18.5473 19.2652 18.0551 19.4605 17.6176C19.7573 16.977 19.5933 16.1645 19.062 15.6411C18.7573 15.3364 18.4839 15.1879 17.4136 14.7582C16.9683 14.5864 16.5542 14.3989 16.4995 14.352C16.4448 14.3051 16.4058 14.1567 16.4214 14.0004C16.4761 13.3442 17.3042 13.2036 18.273 13.6879C18.5933 13.8442 18.9058 13.9536 18.9917 13.9301C19.1792 13.8754 19.4527 13.5395 19.4527 13.3598C19.4527 12.9848 18.648 12.4536 17.8277 12.2739C17.3589 12.1723 17.187 12.1723 16.773 12.2739Z" fill="#289A7B"/>
<path d="M23.3041 12.2734C21.5932 12.5625 20.3119 14.3281 20.6088 16.0156C20.8119 17.1328 21.4838 18.0469 22.476 18.5312C22.976 18.7734 23.0541 18.7891 23.8744 18.7891C24.7104 18.7891 24.7494 18.7812 25.3197 18.5C27.3979 17.4688 27.8354 14.7578 26.1713 13.1719C25.6401 12.6641 25.2338 12.4453 24.5385 12.2969C23.9682 12.1797 23.8901 12.1797 23.3041 12.2734ZM24.7963 13.6094C25.5151 13.9688 25.9369 14.5703 25.9994 15.3594C26.0619 16.2188 25.6791 16.9609 24.9447 17.3984C24.4369 17.6953 23.6244 17.7422 23.0619 17.5C22.3197 17.1797 21.7182 16.3125 21.7182 15.5469C21.7182 15.1953 21.9369 14.5703 22.1791 14.2422C22.7494 13.4531 23.9135 13.1641 24.7963 13.6094Z" fill="#289A7B"/>
<path d="M17.6951 21.2736C16.9685 21.5548 16.4763 22.1173 16.3279 22.8673C16.2654 23.133 16.2498 23.8361 16.2654 24.7189C16.2888 25.9455 16.3123 26.1798 16.4529 26.4845C16.6951 27.008 16.9842 27.3126 17.4763 27.547C18.5545 28.0783 19.7654 27.633 20.281 26.5236C20.4607 26.1486 20.4685 26.047 20.4685 24.4533C20.4685 22.8517 20.4607 22.758 20.281 22.383C19.9217 21.6173 19.2185 21.172 18.3982 21.1798C18.1404 21.1798 17.8201 21.2267 17.6951 21.2736ZM18.9998 22.5705L19.2576 22.797L19.281 24.3908C19.3045 25.9376 19.2967 25.9923 19.1326 26.2033C18.906 26.4923 18.5154 26.6486 18.2029 26.5939C17.8904 26.5236 17.531 26.172 17.4685 25.8517C17.3748 25.3595 17.4138 23.2111 17.531 22.9376C17.7888 22.3205 18.5154 22.1408 18.9998 22.5705Z" fill="#289A7B"/>
<path d="M22.7808 21.2888C22.3198 21.4529 21.937 21.8045 21.6792 22.3045L21.4448 22.7654V24.4841C21.4448 26.1482 21.4526 26.2263 21.6323 26.5623C22.0308 27.3279 22.687 27.7576 23.4761 27.7654C24.1167 27.7732 24.5933 27.5779 25.0151 27.1248C25.6011 26.4998 25.6401 26.3045 25.6089 24.3279C25.5854 22.4529 25.5776 22.4138 25.0542 21.8279C24.5464 21.242 23.562 21.0076 22.7808 21.2888ZM24.0776 22.4998C24.4292 22.7732 24.4604 22.992 24.437 24.5935C24.4136 26.0388 24.4058 26.0857 24.2261 26.281C23.8198 26.7185 23.1245 26.6873 22.7808 26.2263C22.6323 26.0232 22.6167 25.8826 22.5933 24.5701C22.562 22.9841 22.6167 22.7341 23.0308 22.4841C23.3198 22.2966 23.8354 22.3045 24.0776 22.4998Z" fill="#289A7B"/>
<path d="M12.7339 21.3516C11.7417 21.6328 11.1636 22.3828 11.1636 23.3984C11.1636 23.6641 11.2104 24.0078 11.2729 24.1641C11.562 24.8516 12.4292 25.4688 13.1089 25.4688C13.2886 25.4688 13.437 25.5 13.437 25.5391C13.437 25.5781 13.187 25.8828 12.8745 26.2109C12.3979 26.7188 12.312 26.8516 12.312 27.0859C12.312 27.3984 12.5542 27.6562 12.8433 27.6562C13.2964 27.6562 14.2104 26.6563 14.7261 25.5859C15.5073 23.9922 15.4995 22.6875 14.7026 21.8906C14.1948 21.3906 13.3901 21.1719 12.7339 21.3516ZM13.5464 22.5313C13.9292 22.6875 14.1401 23 14.1401 23.4141C14.1401 23.7109 14.1011 23.8047 13.8745 24.0313C13.6479 24.2578 13.5542 24.2969 13.2495 24.2969C12.5933 24.2969 12.1714 23.7031 12.3901 23.0859C12.5229 22.6875 12.7417 22.5156 13.2261 22.4297C13.2573 22.4297 13.3979 22.4688 13.5464 22.5313Z" fill="#289A7B"/>
<path d="M26.7573 21.4454C26.6479 21.5469 26.562 21.7266 26.562 21.836C26.562 21.9454 26.6479 22.1251 26.7573 22.2266C26.9058 22.3829 27.0229 22.4219 27.3433 22.4219H27.7339V24.8829C27.7339 27.2423 27.7417 27.3516 27.8901 27.5001C28.187 27.7969 28.6714 27.6719 28.8198 27.2579C28.937 26.9298 28.937 21.9688 28.8276 21.6719C28.687 21.3126 28.5386 21.2579 27.7104 21.2501C26.9995 21.2501 26.9292 21.2657 26.7573 21.4454Z" fill="#289A7B"/>
</g>
<defs>
<clipPath id="clip0_32_950">
<rect width="40" height="40" fill="white"/>
</clipPath>
</defs>
</svg>
