<svg width="89" height="88" viewBox="0 0 89 88" fill="none" xmlns="http://www.w3.org/2000/svg">
<circle cx="43.5754" cy="43.5754" r="43.5754" transform="matrix(1 0 0 -1 0.925781 87.5754)" fill="#C8C8C8" fill-opacity="0.24"/>
<path d="M77.2029 44.1312C77.2029 25.9965 62.5018 11.2954 44.3671 11.2954C26.2323 11.2954 11.5312 25.9965 11.5312 44.1312C11.5312 62.2659 26.2323 76.967 44.3671 76.967C62.5018 76.967 77.2029 62.2659 77.2029 44.1312Z" fill="#25D366"/>
<path fill-rule="evenodd" clip-rule="evenodd" d="M55.7669 32.8998C52.9728 30.1057 49.2473 28.6155 45.3356 28.6155C37.1395 28.6155 30.4336 35.3214 30.4336 43.5174C30.4336 46.1253 31.1787 48.7331 32.4826 50.9684L30.4336 58.4194L38.2571 56.3704C40.4924 57.488 42.914 58.2331 45.3356 58.2331C53.5316 58.2331 60.2375 51.5272 60.2375 43.3312C60.2375 39.4194 58.5611 35.6939 55.7669 32.8998ZM45.3356 55.8116C43.1003 55.8116 40.865 55.2527 39.0022 54.1351L38.6297 53.9488L33.9728 55.2527L35.2767 50.7821L34.9042 50.2233C33.6002 48.1743 33.0414 45.939 33.0414 43.7037C33.0414 36.9978 38.6297 31.4096 45.3356 31.4096C48.6885 31.4096 51.6689 32.7135 54.0905 34.9488C56.512 37.3704 57.6297 40.3508 57.6297 43.7037C57.6297 50.2233 52.2277 55.8116 45.3356 55.8116ZM52.0414 46.4978C51.6689 46.3116 49.8062 45.3802 49.4336 45.3802C49.0611 45.1939 48.8748 45.1939 48.6885 45.5665C48.5022 45.939 47.7571 46.6841 47.5709 47.0567C47.3846 47.2429 47.1983 47.2429 46.8257 47.2429C46.4532 47.0567 45.3356 46.6841 43.8454 45.3802C42.7277 44.4488 41.9826 43.1449 41.7964 42.7723C41.6101 42.3998 41.7964 42.2135 41.9826 42.0272C42.1689 41.841 42.3552 41.6547 42.5414 41.4684C42.7277 41.2821 42.7277 41.0959 42.914 40.9096C43.1003 40.7233 42.914 40.537 42.914 40.3508C42.914 40.1645 42.1689 38.3018 41.7964 37.5567C41.6101 36.9978 41.2375 36.9978 41.0513 36.9978C40.865 36.9978 40.6787 36.9978 40.3061 36.9978C40.1198 36.9978 39.7473 36.9978 39.3747 37.3704C39.0022 37.7429 38.0709 38.6743 38.0709 40.537C38.0709 42.3998 39.3748 44.0763 39.561 44.4488C39.7473 44.6351 42.1689 48.5469 45.8944 50.037C49.061 51.341 49.6199 50.9684 50.365 50.9684C51.1101 50.9684 52.6003 50.037 52.7865 49.292C53.1591 48.3606 53.1591 47.6155 52.9728 47.6155C52.7865 46.6841 52.414 46.6841 52.0414 46.4978Z" fill="white"/>
</svg>
