<svg width="36" height="36" viewBox="0 0 36 36" fill="none" xmlns="http://www.w3.org/2000/svg">
<path d="M10.1874 0.234375C9.38267 0.445312 8.78111 0.796875 8.14048 1.4375C7.10923 2.46875 6.70298 3.55469 6.76548 5.17969C6.78892 6.01562 6.86704 6.21094 7.32798 6.54688C7.63267 6.77344 8.36704 6.77344 8.67173 6.54688C9.14048 6.20312 9.20298 6.03125 9.25767 5.04688C9.28111 4.47656 9.34361 4.02344 9.42173 3.85156C9.60923 3.41406 10.0702 2.96094 10.4999 2.77344L10.8827 2.60938L21.4139 2.625C31.4139 2.64844 31.9608 2.65625 32.2264 2.78906C32.5936 2.96875 33.0311 3.40625 33.2108 3.77344C33.3436 4.03906 33.3514 4.42188 33.3749 9.58594C33.3905 15.1016 33.3905 15.1172 33.2264 15.5078C33.0233 15.9844 32.4999 16.4609 32.0077 16.625C31.742 16.7188 31.3358 16.75 30.5077 16.75C29.4764 16.75 29.3358 16.7656 29.0624 16.9297C28.2108 17.4062 28.2342 18.6562 29.1014 19.0938C29.3592 19.2266 29.5624 19.25 30.5936 19.25C31.9764 19.25 32.5858 19.1406 33.3592 18.7656C34.0936 18.4141 35.0702 17.4531 35.4061 16.75C35.8983 15.7266 35.8905 15.8672 35.8905 9.70312C35.8905 5.96875 35.8592 3.96094 35.8045 3.6875C35.4764 2.07031 34.0467 0.609375 32.4452 0.226562C31.7108 0.0546875 10.8436 0.0625 10.1874 0.234375Z" fill="#289A7B"/>
<path d="M14.0622 6.92992C13.2107 7.40648 13.2341 8.65648 14.1013 9.09398C14.3982 9.25023 14.5544 9.25023 21.4294 9.2346C28.3904 9.21117 28.4607 9.21117 28.6716 9.0471C29.0857 8.74242 29.2107 8.49242 29.2107 8.00023C29.2107 7.50804 29.0857 7.25804 28.6716 6.95335C28.4607 6.78929 28.3904 6.78929 21.4138 6.77367L14.3669 6.75023L14.0622 6.92992Z" fill="#289A7B"/>
<path d="M5.77295 8.4374C4.44482 8.64052 3.25732 9.39052 2.53857 10.4686C1.98389 11.289 1.78857 11.953 1.78857 12.9999C1.78857 14.0468 1.98389 14.7108 2.53857 15.5311C3.39014 16.8124 4.75732 17.5468 6.28076 17.5624C7.56201 17.5702 8.62451 17.1405 9.53076 16.2421C11.3589 14.4218 11.3589 11.578 9.53076 9.75771C8.94482 9.17958 8.16357 8.72646 7.44482 8.55458C7.00732 8.45302 6.10107 8.39052 5.77295 8.4374ZM7.29639 11.1874C8.06982 11.578 8.44482 12.2811 8.3667 13.2108C8.29639 14.0858 7.7417 14.7421 6.85107 14.9999C5.93701 15.2655 4.93701 14.8124 4.46045 13.9061C4.22607 13.453 4.22607 12.5468 4.46045 12.0936C5.03857 11.0077 6.20264 10.6327 7.29639 11.1874Z" fill="#289A7B"/>
<path d="M14.0622 11.9297C13.2107 12.4062 13.2341 13.6562 14.1013 14.0938C14.3825 14.2422 14.57 14.25 17.9997 14.25C21.4294 14.25 21.6169 14.2422 21.8982 14.0938C22.781 13.6484 22.781 12.3516 21.8982 11.9062C21.6169 11.7578 21.4294 11.75 17.9841 11.75C14.3825 11.75 14.3669 11.75 14.0622 11.9297Z" fill="#289A7B"/>
<path d="M25.8512 11.8591C25.7262 11.9138 25.5387 12.0466 25.445 12.156C25.3434 12.2576 23.984 14.3669 22.4059 16.8357C20.8356 19.2966 19.5075 21.3123 19.4606 21.3044C19.4059 21.2966 19.1559 21.2341 18.8981 21.1638C18.32 20.9998 17.3434 21.0388 16.8356 21.2498C16.6403 21.3279 15.5934 21.8591 14.4997 22.4294C13.4059 23.0076 12.4997 23.4607 12.4919 23.4529C12.484 23.4373 12.3825 23.1248 12.2653 22.7498C11.1559 19.2888 7.2653 17.4998 3.92155 18.906C2.21061 19.6248 0.96842 21.0076 0.335607 22.8826L0.148107 23.4294L0.12467 29.1951C0.109045 34.4294 0.116857 34.9841 0.234045 35.2263C0.421545 35.6248 0.757483 35.8357 1.27311 35.8748C1.78873 35.906 2.1403 35.7185 2.40592 35.2654C2.56998 34.9998 2.56998 34.8669 2.60905 29.3669L2.64811 23.7419L2.8278 23.3201C3.35905 22.0623 4.48405 21.1716 5.78092 20.9685C7.35905 20.7263 8.96842 21.5701 9.67155 23.0154C9.98405 23.656 10.109 24.2888 10.109 25.2341C10.109 25.7654 10.1403 25.9138 10.2809 26.1248C10.5387 26.4998 10.8278 26.6873 11.2184 26.7263C11.6169 26.7732 11.4684 26.8435 15.2419 24.8669C17.9528 23.4451 18.0934 23.3904 18.609 23.7029C18.9606 23.9216 19.1715 24.2966 19.1715 24.7263C19.1715 25.4216 19.1872 25.4138 15.1481 27.5623C11.57 29.4685 11.4606 29.5232 10.9606 29.5466C10.3356 29.5857 9.80436 29.3826 9.38248 28.9529C9.22623 28.7966 8.71061 27.9763 8.23405 27.1404C7.75748 26.3044 7.30436 25.5544 7.23405 25.4685C6.74967 24.9373 5.74967 25.0076 5.3278 25.6013C5.22623 25.7498 5.14811 25.9998 5.12467 26.2576C5.09342 26.6638 5.10123 26.6951 6.00748 28.2966C7.06998 30.1638 7.39811 30.6248 7.99186 31.0779C8.53873 31.4998 8.83561 31.656 9.52311 31.8748L10.07 32.0466L10.109 33.6013C10.1481 35.0466 10.1637 35.1638 10.32 35.3904C10.8356 36.1091 11.9528 36.0466 12.4059 35.2654C12.5544 35.0154 12.57 34.8357 12.5934 33.3748L12.6169 31.7498L13.2575 31.406C13.609 31.2107 15.2887 30.3201 16.984 29.4216C20.2028 27.7107 20.6012 27.4529 21.0934 26.7185C21.6637 25.8826 21.8356 24.6248 21.5153 23.6169L21.3669 23.1248L24.4137 18.3357C26.0934 15.7029 27.4997 13.4216 27.5387 13.2732C27.6247 12.9685 27.5387 12.5232 27.3356 12.2341C27.0465 11.8279 26.3356 11.6482 25.8512 11.8591Z" fill="#289A7B"/>
</svg>
