<svg width="50" height="50" viewBox="0 0 50 50" fill="none" xmlns="http://www.w3.org/2000/svg">
<rect x="0.5" y="0.5" width="49" height="49" rx="24.5" stroke="white" stroke-opacity="0.125"/>
<path fill-rule="evenodd" clip-rule="evenodd" d="M18.75 17.7021C18.0596 17.7021 17.5 18.2618 17.5 18.9521V31.4521C17.5 32.1425 18.0596 32.7021 18.75 32.7021H31.25C31.9403 32.7021 32.5 32.1425 32.5 31.4521V18.9521C32.5 18.2618 31.9403 17.7021 31.25 17.7021H18.75ZM22.1006 21.0377C22.1053 21.8346 21.5088 22.3256 20.801 22.3221C20.1342 22.3186 19.553 21.7877 19.5565 21.0389C19.56 20.3346 20.1166 19.7686 20.8397 19.785C21.5733 19.8014 22.1053 20.3393 22.1006 21.0377ZM25.2331 23.3369H23.1331H23.1319V30.4701H25.3514V30.3037C25.3514 29.9871 25.3512 29.6705 25.3509 29.3537C25.3502 28.5089 25.3495 27.6631 25.3538 26.8186C25.355 26.6135 25.3643 26.4002 25.4171 26.2045C25.6151 25.4732 26.2726 25.001 27.0062 25.1171C27.4773 25.1908 27.7889 25.4639 27.9202 25.9081C28.0011 26.1857 28.0374 26.4846 28.0409 26.7741C28.0504 27.6471 28.0491 28.5201 28.0477 29.3931C28.0472 29.7013 28.0468 30.0096 28.0468 30.3178V30.469H30.2733V30.2979C30.2733 29.9212 30.2732 29.5446 30.2729 29.1681C30.2725 28.2268 30.272 27.2856 30.2745 26.344C30.2757 25.9186 30.23 25.4991 30.1257 25.0877C29.9698 24.476 29.6476 23.9697 29.1237 23.6041C28.7522 23.344 28.3444 23.1764 27.8886 23.1576C27.8367 23.1555 27.7843 23.1527 27.7317 23.1498C27.4987 23.1372 27.2618 23.1244 27.0389 23.1694C26.4014 23.2971 25.8413 23.5889 25.4182 24.1033C25.3691 24.1623 25.321 24.2222 25.2492 24.3116L25.2331 24.3319V23.3369ZM19.7347 30.4725H21.9437V23.3416H19.7347V30.4725Z" fill="white"/>
</svg>
