<svg width="102" height="48" viewBox="0 0 102 48" fill="none" xmlns="http://www.w3.org/2000/svg">
<g clip-path="url(#clip0_32_4552)">
<path d="M37.6392 32.9751C37.0572 32.2634 36.3372 31.9103 35.4821 31.9103C35.1042 31.9103 34.7566 31.9793 34.4366 32.1172C34.1167 32.2551 33.8408 32.44 33.6091 32.6744C33.3774 32.9089 33.1953 33.1903 33.0629 33.5158C32.9305 33.8413 32.8643 34.1916 32.8643 34.5695C32.8643 34.9474 32.9305 35.3088 33.0629 35.6343C33.1953 35.9598 33.3801 36.2411 33.6146 36.4811C33.8491 36.7211 34.1249 36.9087 34.4422 37.0466C34.7594 37.1845 35.1014 37.2507 35.4683 37.2507C36.2738 37.2507 36.9965 36.9087 37.6392 36.2246V39.2037L37.3827 39.2947C36.9965 39.4327 36.6379 39.532 36.3041 39.5954C35.9703 39.6589 35.6393 39.692 35.3166 39.692C34.649 39.692 34.0091 39.5651 33.3967 39.314C32.7843 39.0603 32.2464 38.7072 31.7775 38.2493C31.3113 37.7914 30.9361 37.248 30.6548 36.619C30.3734 35.9901 30.23 35.3032 30.23 34.5585C30.23 33.8137 30.3679 33.1323 30.6465 32.5117C30.9251 31.891 31.2975 31.3559 31.7637 30.9063C32.2299 30.4566 32.7705 30.1063 33.3884 29.8525C34.0036 29.5987 34.6518 29.4746 35.3276 29.4746C35.7138 29.4746 36.0917 29.516 36.4641 29.596C36.8365 29.6787 37.2282 29.8029 37.6392 29.9739V32.9779V32.9751Z" fill="white"/>
<path d="M38.1326 36.0671C38.1326 35.5789 38.2319 35.1237 38.4278 34.6989C38.6236 34.2741 38.8995 33.9072 39.2498 33.5955C39.6001 33.2838 40.0194 33.0383 40.5022 32.8563C40.9849 32.677 41.5145 32.5859 42.0883 32.5859C42.662 32.5859 43.1779 32.6742 43.6606 32.848C44.1433 33.0245 44.5626 33.2673 44.9185 33.579C45.2743 33.8907 45.5501 34.2631 45.746 34.6962C45.9418 35.1292 46.0412 35.6065 46.0412 36.1278C46.0412 36.6492 45.9391 37.1264 45.7405 37.5594C45.5391 37.9925 45.2633 38.3649 44.9129 38.6766C44.5626 38.9883 44.1406 39.2311 43.6468 39.4021C43.1558 39.5731 42.6207 39.6586 42.0469 39.6586C41.4731 39.6586 40.9601 39.5731 40.4801 39.4021C40.0001 39.2311 39.5891 38.9883 39.2415 38.6711C38.894 38.3539 38.6236 37.976 38.425 37.5346C38.2292 37.0933 38.1299 36.605 38.1299 36.0644L38.1326 36.0671ZM40.5849 36.0919C40.5849 36.3154 40.6263 36.5167 40.7063 36.7016C40.7863 36.8864 40.8939 37.0464 41.0263 37.1843C41.1587 37.3222 41.3159 37.427 41.5007 37.5043C41.6855 37.5815 41.8786 37.6201 42.0855 37.6201C42.2924 37.6201 42.4855 37.5815 42.6703 37.5043C42.8551 37.427 43.0124 37.3195 43.1448 37.1843C43.2772 37.0464 43.3848 36.8864 43.4648 36.7016C43.5447 36.5167 43.5861 36.3181 43.5861 36.1057C43.5861 35.8933 43.5447 35.7058 43.4648 35.5209C43.382 35.3361 43.2772 35.1761 43.1448 35.0382C43.0124 34.9003 42.8524 34.7955 42.6703 34.7182C42.4855 34.641 42.2924 34.6024 42.0855 34.6024C41.8786 34.6024 41.6855 34.641 41.5007 34.7182C41.3159 34.7955 41.1587 34.903 41.0263 35.0382C40.8939 35.1761 40.7863 35.3334 40.7063 35.5127C40.6235 35.692 40.5849 35.8851 40.5849 36.0892V36.0919Z" fill="white"/>
<path d="M46.4798 32.8311H48.8052V33.6669C49.1224 33.2807 49.4424 33.0242 49.7679 32.889C50.0934 32.7566 50.4741 32.6904 50.9099 32.6904C51.3733 32.6904 51.7678 32.7649 52.0988 32.9139C52.4271 33.0628 52.7084 33.2752 52.9401 33.5483C53.1277 33.7717 53.2574 34.02 53.3263 34.2931C53.3953 34.5662 53.4284 34.8806 53.4284 35.231V39.4183H51.103V36.0916C51.103 35.7661 51.0782 35.5041 51.0313 35.3027C50.9844 35.1013 50.9016 34.9413 50.7802 34.82C50.6782 34.7179 50.5623 34.6434 50.4327 34.602C50.303 34.5579 50.1679 34.5386 50.0217 34.5386C49.6272 34.5386 49.3265 34.6572 49.1169 34.8917C48.9073 35.1262 48.8024 35.4627 48.8024 35.8985V39.4156H46.4771V32.8284L46.4798 32.8311Z" fill="white"/>
<path d="M58.7467 34.5276C58.3192 34.3042 57.8999 34.1938 57.4889 34.1938C57.2737 34.1938 57.1027 34.238 56.9675 34.3235C56.8351 34.409 56.7689 34.5248 56.7689 34.671C56.7689 34.7483 56.7799 34.809 56.802 34.8586C56.8241 34.9055 56.871 34.9496 56.9427 34.9938C57.0144 35.0379 57.122 35.0738 57.2627 35.1096C57.4034 35.1427 57.5909 35.1869 57.8199 35.2393C58.4626 35.3689 58.9426 35.5979 59.257 35.9261C59.5743 36.2572 59.7315 36.6764 59.7315 37.1923C59.7315 37.5785 59.6543 37.9233 59.4998 38.2322C59.3453 38.5412 59.1329 38.8005 58.8571 39.0101C58.584 39.2197 58.253 39.3825 57.8695 39.4984C57.4861 39.6142 57.0613 39.6721 56.5979 39.6721C55.7069 39.6721 54.8297 39.4184 53.9663 38.9136L54.8132 37.2695C55.4642 37.7136 56.0793 37.9371 56.6613 37.9371C56.8765 37.9371 57.0503 37.8902 57.1882 37.7964C57.3261 37.7026 57.3923 37.5812 57.3923 37.4378C57.3923 37.3523 57.3813 37.2805 57.3592 37.2254C57.3372 37.1702 57.293 37.1178 57.2241 37.0709C57.1551 37.024 57.0558 36.9799 56.9234 36.9413C56.791 36.9026 56.6172 36.8613 56.402 36.8199C55.6821 36.6737 55.18 36.4585 54.8932 36.1716C54.6063 35.8848 54.4628 35.4903 54.4628 34.9828C54.4628 34.6159 54.5318 34.2821 54.667 33.9869C54.8049 33.6918 55.0007 33.4408 55.2573 33.2366C55.5138 33.0298 55.8255 32.8725 56.1896 32.7622C56.5537 32.6518 56.9565 32.5967 57.4034 32.5967C58.1316 32.5967 58.8378 32.7374 59.5219 33.0215L58.7384 34.5359L58.7467 34.5276Z" fill="white"/>
<path d="M62.3439 32.8311V36.5412C62.3439 37.3549 62.7384 37.7604 63.5246 37.7604C64.3107 37.7604 64.7052 37.3549 64.7052 36.5412V32.8311H67.0306V36.9908C67.0306 37.8818 66.7382 38.5493 66.1506 38.9935C65.5631 39.4376 64.6886 39.661 63.5246 39.661C62.3605 39.661 61.4861 39.4376 60.8985 38.9935C60.311 38.5493 60.0186 37.8818 60.0186 36.9908V32.8311H62.3439Z" fill="white"/>
<path d="M70.0344 28.7627V39.4214H67.709V28.7627H70.0344Z" fill="white"/>
<path d="M73.5984 34.7705V39.4185H71.273V34.7705H70.5034V32.8313H71.273V30.8535H73.5984V32.8313H74.9197V34.7705H73.5984Z" fill="white"/>
<path d="M75.0273 36.0671C75.0273 35.5789 75.1267 35.1237 75.3225 34.6989C75.5184 34.2741 75.7942 33.9072 76.1445 33.5955C76.4949 33.2838 76.9141 33.0383 77.3969 32.8563C77.8796 32.677 78.4092 32.5859 78.983 32.5859C79.5567 32.5859 80.0726 32.6742 80.5553 32.848C81.038 33.0245 81.4573 33.2673 81.8132 33.579C82.169 33.8907 82.4448 34.2631 82.6407 34.6962C82.8366 35.1292 82.9359 35.6065 82.9359 36.1278C82.9359 36.6492 82.8338 37.1264 82.6352 37.5594C82.4338 37.9925 82.158 38.3649 81.8076 38.6766C81.4573 38.9883 81.0353 39.2311 80.5415 39.4021C80.0505 39.5731 79.5154 39.6586 78.9444 39.6586C78.3734 39.6586 77.8575 39.5731 77.3776 39.4021C76.8976 39.2311 76.4866 38.9883 76.139 38.6711C75.7914 38.3539 75.5211 37.976 75.3225 37.5346C75.1267 37.0933 75.0273 36.605 75.0273 36.0644V36.0671ZM77.4796 36.0919C77.4796 36.3154 77.521 36.5167 77.601 36.7016C77.681 36.8864 77.7886 37.0464 77.921 37.1843C78.0534 37.3222 78.2106 37.427 78.3954 37.5043C78.5802 37.5815 78.7733 37.6201 78.9802 37.6201C79.1871 37.6201 79.3802 37.5815 79.565 37.5043C79.7498 37.427 79.9071 37.3195 80.0395 37.1843C80.1719 37.0464 80.2795 36.8864 80.3595 36.7016C80.4395 36.5167 80.4808 36.3181 80.4808 36.1057C80.4808 35.8933 80.4395 35.7058 80.3595 35.5209C80.2767 35.3361 80.1719 35.1761 80.0395 35.0382C79.9071 34.9003 79.7471 34.7955 79.565 34.7182C79.3802 34.641 79.1871 34.6024 78.9802 34.6024C78.7733 34.6024 78.5802 34.641 78.3954 34.7182C78.2106 34.7955 78.0534 34.903 77.921 35.0382C77.7886 35.1761 77.681 35.3334 77.601 35.5127C77.5182 35.692 77.4796 35.8851 77.4796 36.0892V36.0919Z" fill="white"/>
<path d="M83.3745 32.8311H85.6999V33.9097C85.9482 33.5152 86.2516 33.2145 86.6129 33.0049C86.9715 32.7953 87.3908 32.6904 87.8708 32.6904H88.0694C88.1411 32.6904 88.2266 32.6987 88.3204 32.7153V34.9358C88.0115 34.7813 87.6777 34.7041 87.3191 34.7041C86.7785 34.7041 86.3757 34.8641 86.1054 35.1868C85.8351 35.5068 85.6999 35.9758 85.6999 36.5937V39.4183H83.3745V32.8311Z" fill="white"/>
<path d="M90.9052 36.5161C90.9052 37.5174 91.3769 38.0195 92.3176 38.0195C92.8224 38.0195 93.203 37.8126 93.4596 37.4043H95.7077C95.2526 38.9105 94.1188 39.6635 92.3038 39.6635C91.7465 39.6635 91.239 39.5808 90.7756 39.4125C90.3121 39.247 89.9177 39.007 89.5867 38.7008C89.2557 38.3946 89.0019 38.025 88.8226 37.5974C88.6433 37.1699 88.5522 36.6899 88.5522 36.1603C88.5522 35.6306 88.6378 35.1176 88.8088 34.6762C88.9798 34.2349 89.2226 33.8597 89.5398 33.5535C89.857 33.2473 90.2404 33.0073 90.6901 32.8418C91.1397 32.6763 91.6472 32.5908 92.2127 32.5908C92.7782 32.5908 93.2692 32.6736 93.7161 32.8418C94.163 33.0101 94.5381 33.2501 94.8471 33.5673C95.156 33.8845 95.3905 34.2707 95.5532 34.7286C95.716 35.1865 95.796 35.7024 95.796 36.2761V36.5189H90.9025L90.9052 36.5161ZM93.6278 35.1672C93.5506 34.8417 93.3934 34.5824 93.1534 34.3838C92.9134 34.188 92.6237 34.0887 92.2789 34.0887C91.9203 34.0887 91.6252 34.1825 91.399 34.37C91.1728 34.5576 91.0293 34.8252 90.9687 35.1672H93.6278Z" fill="white"/>
<path d="M100.311 34.5276C99.8836 34.3042 99.4643 34.1938 99.0533 34.1938C98.8382 34.1938 98.6671 34.238 98.532 34.3235C98.3996 34.409 98.3334 34.5248 98.3334 34.671C98.3334 34.7483 98.3444 34.809 98.3665 34.8586C98.3885 34.9055 98.4354 34.9496 98.5071 34.9938C98.5789 35.0379 98.6864 35.0738 98.8271 35.1096C98.9678 35.1427 99.1554 35.1869 99.3843 35.2393C100.027 35.3689 100.507 35.5979 100.821 35.9261C101.139 36.2572 101.296 36.6764 101.296 37.1923C101.296 37.5785 101.219 37.9233 101.064 38.2322C100.91 38.5412 100.697 38.8005 100.422 39.0101C100.148 39.2197 99.8174 39.3825 99.434 39.4984C99.0506 39.6142 98.6258 39.6721 98.1623 39.6721C97.2713 39.6721 96.3942 39.4184 95.5308 38.9136L96.3776 37.2695C97.0286 37.7136 97.6437 37.9371 98.2258 37.9371C98.4409 37.9371 98.6147 37.8902 98.7526 37.7964C98.8906 37.7026 98.9568 37.5812 98.9568 37.4378C98.9568 37.3523 98.9457 37.2805 98.9237 37.2254C98.9016 37.1702 98.8575 37.1178 98.7885 37.0709C98.7195 37.024 98.6202 36.9799 98.4878 36.9413C98.3554 36.9026 98.1816 36.8613 97.9692 36.8199C97.2493 36.6737 96.7472 36.4585 96.4604 36.1716C96.1735 35.8848 96.03 35.4903 96.03 34.9828C96.03 34.6159 96.099 34.2821 96.2369 33.9869C96.3749 33.6918 96.5707 33.4408 96.8272 33.2366C97.0838 33.0298 97.3955 32.8725 97.7596 32.7622C98.1237 32.6518 98.5292 32.5967 98.9733 32.5967C99.7016 32.5967 100.408 32.7374 101.092 33.0215L100.308 34.5359L100.311 34.5276Z" fill="white"/>
<path d="M0.50204 46.0166C0.515832 46.0166 0.524108 46.0083 0.524108 45.989V42.0554L0 42.0416C0 41.934 0 41.8127 0.00827539 41.7051C0.259295 41.7051 0.554451 41.7134 0.833056 41.7134C1.03994 41.7134 2.24815 41.7051 2.42745 41.7051H3.04534C3.07293 42.0637 3.095 42.4306 3.10879 42.7892C2.99293 42.8112 2.86604 42.825 2.72812 42.8388L2.61226 42.2154C2.59847 42.1437 2.56261 42.0995 2.44676 42.094C2.26746 42.072 1.77921 42.0582 1.30475 42.0582H1.09787L1.08959 43.8236C1.49233 43.8153 1.82886 43.8153 2.2178 43.8098C2.34745 43.8015 2.37504 43.7601 2.38331 43.6663L2.41917 43.3215C2.54054 43.3215 2.67847 43.3215 2.78605 43.3298C2.77777 43.545 2.77777 43.7822 2.77225 44.0112V44.6704C2.6564 44.6787 2.52951 44.6842 2.40538 44.6787L2.37779 44.3063C2.36952 44.207 2.32814 44.1711 2.20677 44.1711C1.88403 44.1629 1.51715 44.1629 1.09511 44.1629L1.08683 45.8869C1.08683 46.0083 1.10063 46.0303 1.48957 46.0303C2.07161 46.0303 2.47986 46.0083 2.60123 45.9807C2.67295 45.9586 2.70881 45.9172 2.73088 45.8373L2.95983 45.1835C3.08948 45.2056 3.22464 45.2331 3.33222 45.2552C3.25223 45.6276 3.16671 46.0083 3.0812 46.3834C2.75019 46.3752 1.81783 46.3752 0.849606 46.3752H0C0 46.2676 0 46.1517 0.00827539 46.0441L0.504799 46.0221L0.50204 46.0166Z" fill="white"/>
<path d="M4.35014 45.8732C4.36393 45.9091 4.37221 45.9312 4.41359 45.9587C4.51289 46.0387 4.70874 46.1105 4.91011 46.1105C5.11148 46.1105 5.29905 46.0967 5.44801 45.9946C5.55559 45.9146 5.64938 45.7932 5.64938 45.5919C5.64938 45.225 5.43422 45.1836 4.83839 44.996C4.25635 44.8223 4.0274 44.5933 4.0274 44.1933C4.0274 43.8485 4.25084 43.5975 4.47979 43.4679C4.69495 43.3465 4.98183 43.2803 5.33491 43.2803C5.71558 43.2803 5.9666 43.3658 6.03832 43.4099C6.0659 43.6692 6.09625 43.934 6.11831 44.1988C6.01073 44.2126 5.87557 44.2347 5.75144 44.2485L5.65213 43.7961C5.64386 43.7602 5.62455 43.7327 5.60248 43.7161C5.50869 43.6444 5.35146 43.6085 5.17768 43.6085C4.9901 43.6085 4.83287 43.6665 4.73357 43.7437C4.63426 43.8154 4.55427 43.9313 4.55427 44.1161C4.55427 44.403 4.68943 44.4609 5.26595 44.6319C5.78178 44.7836 6.18452 44.9409 6.18452 45.4926C6.18452 45.8098 6.02729 46.0746 5.72385 46.2539C5.53076 46.3753 5.20802 46.4332 4.85494 46.4332C4.46875 46.4332 4.15153 46.3615 3.9943 46.298C3.95844 46.0194 3.92258 45.7463 3.88672 45.465C4.00809 45.4374 4.13774 45.4153 4.25911 45.4015L4.3529 45.8677L4.35014 45.8732Z" fill="white"/>
<path d="M7.70153 43.6775C8.41321 43.3106 8.52079 43.283 8.82147 43.283C9.54694 43.283 9.98554 44.0223 9.97726 44.654C9.97726 44.9988 9.92761 45.2636 9.80624 45.5367C9.68486 45.8015 9.54694 46.0249 9.23799 46.2318C9.08076 46.3394 8.76354 46.4415 8.4408 46.4415C8.11806 46.4415 7.90841 46.378 7.70981 46.276L7.68222 46.2898C7.6905 46.6925 7.68222 47.2663 7.68222 47.6607L8.34977 47.6745C8.34977 47.7738 8.34977 47.8841 8.34149 47.9835C8.0684 47.9835 7.7236 47.9835 7.40913 47.9917C7.1719 47.9917 6.90709 47.9917 6.69193 48C6.69193 47.9007 6.69193 47.7904 6.70021 47.6911L7.11674 47.669C7.13053 47.6607 7.14432 47.6469 7.14432 47.6249V43.7851L6.59814 43.7768C6.59814 43.683 6.59814 43.5754 6.60642 43.4816C6.87951 43.4375 7.54706 43.2803 7.59119 43.2803C7.60498 43.2803 7.61326 43.2885 7.61326 43.3023C7.63533 43.4182 7.65739 43.5534 7.67119 43.6692L7.70705 43.6775H7.70153ZM9.38971 44.825C9.38971 44.5657 9.35385 44.3147 9.23799 44.0857C9.11662 43.8623 8.88491 43.7134 8.61458 43.7134C8.34425 43.7134 8.01048 43.8292 7.70429 44.0499C7.70429 44.5961 7.69601 45.2195 7.69601 45.7298C7.69601 45.887 8.06841 46.0967 8.42149 46.0967C8.62837 46.0967 8.87388 46.0249 9.0449 45.8456C9.26006 45.6305 9.38971 45.3077 9.38971 44.8333V44.825Z" fill="white"/>
<path d="M10.5869 44.9907C10.5869 44.0583 11.191 43.2832 12.1151 43.2832C12.4875 43.2832 12.7744 43.4184 12.962 43.6501C13.1688 43.9149 13.235 44.268 13.235 44.5907C13.1992 44.6762 13.064 44.8417 12.9923 44.85C12.5675 44.8638 11.6213 44.8721 11.1689 44.8721C11.1607 45.2665 11.2407 45.5617 11.4062 45.7548C11.6213 46.0058 11.8503 46.0499 12.1454 46.0499C12.4765 46.0499 12.8489 45.9203 13.0999 45.821C13.1357 45.9203 13.1633 46.0444 13.1799 46.1437C12.7854 46.3368 12.3468 46.4444 12.0379 46.4444C11.1055 46.4444 10.5869 45.8348 10.5869 45.0017V44.9934V44.9907ZM12.0296 43.6197C11.7868 43.6197 11.6213 43.7052 11.4972 43.8432C11.4034 43.9508 11.2186 44.1742 11.1965 44.5383C11.6048 44.5383 12.1868 44.53 12.5951 44.5162C12.653 44.5162 12.6889 44.4942 12.6889 44.4362C12.6889 44.1935 12.6033 43.9618 12.4958 43.8321C12.3882 43.7025 12.2448 43.617 12.0351 43.617H12.0268L12.0296 43.6197Z" fill="white"/>
<path d="M13.8115 45.0402C13.8115 44.014 14.5287 43.2803 15.5494 43.2803C15.8666 43.2803 16.101 43.3603 16.2086 43.432C16.2086 43.5313 16.0652 43.8182 15.9797 43.8761C15.908 43.8485 15.6266 43.6968 15.3342 43.6968C15.0418 43.6968 14.868 43.7906 14.7163 43.9616C14.5591 44.1409 14.3936 44.4554 14.3936 44.9023C14.3936 45.3105 14.4736 45.5698 14.6529 45.785C14.8239 45.9946 15.0832 46.0498 15.2983 46.0498C15.5769 46.0498 15.9521 45.9339 16.1893 45.8346C16.2169 45.9284 16.2472 46.0498 16.2693 46.1518C15.8804 46.3394 15.4363 46.4387 15.1273 46.4387C14.4322 46.4387 13.8143 45.9505 13.8143 45.0457V45.0374L13.8115 45.0402Z" fill="white"/>
<path d="M16.6112 43.7628V43.4621C16.9201 43.418 17.6456 43.2828 17.7035 43.2828C17.7173 43.2828 17.7173 43.2911 17.7173 43.3049C17.7173 44.0938 17.7035 45.2717 17.7035 46.033L18.2055 46.0551C18.2055 46.1626 18.2055 46.2647 18.1973 46.364H17.4001C17.1573 46.364 16.8898 46.3723 16.6525 46.3723V46.0551L17.1325 46.033C17.1546 46.033 17.1601 46.0192 17.1601 46.0054V43.7793L16.6084 43.7655L16.6112 43.7628ZM17.4084 41.8319C17.6732 41.8319 17.767 42.047 17.767 42.2043C17.767 42.4277 17.6097 42.5904 17.3863 42.5904C17.1628 42.5904 16.9973 42.4194 16.9973 42.2098C16.9973 42.0001 17.1408 41.8291 17.4001 41.8291H17.4084V41.8319Z" fill="white"/>
<path d="M20.451 46.1187C19.9186 46.3918 19.6621 46.4415 19.4028 46.4415C19.0497 46.4415 18.5918 46.1463 18.5918 45.7381C18.5918 45.3298 19.0304 44.7698 19.9903 44.7754H20.4786C20.5062 44.0085 20.3269 43.7051 19.8828 43.7051C19.5821 43.7051 19.2649 43.9202 19.0221 44.185C18.9421 44.0995 18.8511 43.9975 18.7794 43.912C19.08 43.603 19.4911 43.2803 20.0565 43.2803C20.5889 43.2803 21.0192 43.6471 21.0192 44.4443C21.0192 44.7892 21.011 45.6498 21.0055 45.9505C21.0055 46.0222 21.0275 46.058 21.0689 46.058L21.5489 46.0443V46.3449C21.4496 46.3725 21.0386 46.4387 20.7241 46.4387C20.6524 46.3753 20.5806 46.2594 20.4869 46.116H20.451V46.1187ZM19.1738 45.6801C19.1738 45.9036 19.3752 46.0608 19.6538 46.0608C19.8607 46.0608 20.1779 45.967 20.451 45.7739C20.4731 45.7601 20.4731 45.7463 20.4731 45.7105V45.1009C20.4372 45.0926 20.2855 45.0871 20.0703 45.0871C19.4386 45.0871 19.1738 45.3519 19.1738 45.6746V45.6829V45.6801Z" fill="white"/>
<path d="M21.7144 41.8094C21.7144 41.7101 21.7226 41.6025 21.7226 41.5005C22.0316 41.4729 22.7791 41.335 22.8343 41.335C22.8481 41.335 22.8564 41.3432 22.8564 41.3625C22.8481 42.6618 22.8343 44.601 22.8288 46.0299L23.3887 46.0437C23.3887 46.143 23.3887 46.2588 23.3805 46.3581H22.5474C22.2881 46.3581 22.0095 46.3664 21.7723 46.3664C21.7723 46.2671 21.7723 46.1512 21.7806 46.0492L22.2605 46.0271C22.2743 46.0271 22.2826 46.0133 22.2826 45.9995C22.2909 44.7361 22.2964 43.0783 22.2909 41.8204L21.7171 41.8067L21.7144 41.8094Z" fill="white"/>
<path d="M23.659 43.7628V43.4621C23.968 43.418 24.6934 43.2828 24.7514 43.2828C24.7652 43.2828 24.7652 43.2911 24.7652 43.3049C24.7652 44.0938 24.7514 45.2717 24.7514 46.033L25.2534 46.0551C25.2534 46.1626 25.2534 46.2647 25.2451 46.364H24.4479C24.2052 46.364 23.9376 46.3723 23.7004 46.3723V46.0551L24.1804 46.033C24.2024 46.033 24.2079 46.0192 24.2079 46.0054V43.7793L23.6562 43.7655L23.659 43.7628ZM24.4562 41.8319C24.721 41.8319 24.8148 42.047 24.8148 42.2043C24.8148 42.4277 24.6576 42.5904 24.4341 42.5904C24.2107 42.5904 24.0452 42.4194 24.0452 42.2098C24.0452 42.0001 24.1886 41.8291 24.4479 41.8291H24.4562V41.8319Z" fill="white"/>
<path d="M26.1143 45.8732C26.1281 45.9091 26.1364 45.9312 26.1777 45.9587C26.2771 46.0387 26.4729 46.1105 26.6743 46.1105C26.8756 46.1105 27.0632 46.0967 27.2122 45.9946C27.3197 45.9146 27.4135 45.7932 27.4135 45.5919C27.4135 45.225 27.1984 45.1836 26.6025 44.996C26.0205 44.8223 25.7916 44.5933 25.7916 44.1933C25.7916 43.8485 26.015 43.5975 26.2439 43.4679C26.4591 43.3465 26.746 43.2803 27.0991 43.2803C27.4797 43.2803 27.7308 43.3658 27.8025 43.4099C27.8301 43.6692 27.8604 43.934 27.8825 44.1988C27.7749 44.2126 27.6397 44.2347 27.5156 44.2485L27.4163 43.7961C27.408 43.7602 27.3887 43.7327 27.3666 43.7161C27.2729 43.6444 27.1156 43.6085 26.9418 43.6085C26.7543 43.6085 26.597 43.6665 26.4977 43.7437C26.3984 43.8154 26.3184 43.9313 26.3184 44.1161C26.3184 44.403 26.4536 44.4609 27.0301 44.6319C27.5459 44.7836 27.9487 44.9409 27.9487 45.4926C27.9487 45.8098 27.7914 46.0746 27.488 46.2539C27.2949 46.3753 26.9722 46.4332 26.6191 46.4332C26.2329 46.4332 25.9157 46.3615 25.7585 46.298C25.7226 46.0194 25.6867 45.7463 25.6509 45.465C25.7723 45.4374 25.9019 45.4153 26.0233 45.4015L26.1171 45.8677L26.1143 45.8732Z" fill="white"/>
<path d="M29.7111 46.4337C29.5594 46.4337 29.358 46.4199 29.1594 46.2461C28.9718 46.0751 28.9663 45.9095 28.9663 45.6861C28.9663 45.3192 28.9746 44.7538 28.9746 44.5745C28.9746 44.3593 28.9829 43.929 28.9829 43.7497H28.4863C28.4863 43.6338 28.4946 43.5069 28.5001 43.3966C28.6518 43.3966 28.8091 43.3883 28.9608 43.3828C28.9746 43.3828 29.0049 43.3607 29.0049 43.3331C29.0132 43.1318 29.0187 42.8725 29.027 42.6656C29.2146 42.5442 29.5152 42.4229 29.5373 42.4229C29.5511 42.4229 29.5594 42.4311 29.5594 42.4449C29.5511 42.6877 29.5456 43.0766 29.5456 43.3773C29.9125 43.3773 30.3069 43.3773 30.6738 43.369C30.6738 43.4987 30.66 43.6283 30.6517 43.7414H29.5318V44.5441C29.5235 44.8393 29.5235 45.2558 29.5235 45.6061C29.5235 45.9068 29.7387 46.0447 29.9897 46.0447C30.1552 46.0447 30.4283 46.0006 30.6793 45.9371C30.7014 46.0309 30.7152 46.1468 30.729 46.2544C30.3924 46.3757 29.9814 46.4337 29.7249 46.4337H29.7166H29.7111Z" fill="white"/>
<path d="M32.9027 46.1187C32.3703 46.3918 32.1137 46.4415 31.8544 46.4415C31.5014 46.4415 31.0435 46.1463 31.0435 45.7381C31.0435 45.3298 31.4821 44.7698 32.442 44.7754H32.9302C32.9578 44.0085 32.7785 43.7051 32.3344 43.7051C32.0337 43.7051 31.7165 43.9202 31.4738 44.185C31.3938 44.0995 31.3028 43.9975 31.231 43.912C31.5317 43.603 31.9427 43.2803 32.5082 43.2803C33.0406 43.2803 33.4709 43.6471 33.4709 44.4443C33.4709 44.7892 33.4626 45.6498 33.4571 45.9505C33.4571 46.0222 33.4792 46.058 33.5206 46.058L34.0005 46.0443V46.3449C33.9012 46.3725 33.4902 46.4387 33.1757 46.4387C33.104 46.3753 33.0323 46.2594 32.9385 46.116H32.9027V46.1187ZM31.6255 45.6801C31.6255 45.9036 31.8269 46.0608 32.1055 46.0608C32.3123 46.0608 32.6296 45.967 32.9027 45.7739C32.9247 45.7601 32.9247 45.7463 32.9247 45.7105V45.1009C32.8889 45.0926 32.7372 45.0871 32.522 45.0871C31.8903 45.0871 31.6255 45.3519 31.6255 45.6746V45.6829V45.6801Z" fill="white"/>
<path d="M34.8282 45.8732C34.842 45.9091 34.8502 45.9312 34.8916 45.9587C34.9909 46.0387 35.1868 46.1105 35.3881 46.1105C35.5895 46.1105 35.7771 46.0967 35.926 45.9946C36.0336 45.9146 36.1274 45.7932 36.1274 45.5919C36.1274 45.225 35.9122 45.1836 35.3164 44.996C34.7344 44.8223 34.5054 44.5933 34.5054 44.1933C34.5054 43.8485 34.7289 43.5975 34.9578 43.4679C35.173 43.3465 35.4599 43.2803 35.8129 43.2803C36.1936 43.2803 36.4446 43.3658 36.5163 43.4099C36.5439 43.6692 36.5743 43.934 36.5963 44.1988C36.4888 44.2126 36.3536 44.2347 36.2295 44.2485L36.1302 43.7961C36.1219 43.7602 36.1026 43.7327 36.0805 43.7161C35.9867 43.6444 35.8295 43.6085 35.6557 43.6085C35.4681 43.6085 35.3109 43.6665 35.2116 43.7437C35.1123 43.8154 35.0323 43.9313 35.0323 44.1161C35.0323 44.403 35.1675 44.4609 35.744 44.6319C36.2598 44.7836 36.6625 44.9409 36.6625 45.4926C36.6625 45.8098 36.5053 46.0746 36.2019 46.2539C36.0088 46.3753 35.686 46.4332 35.333 46.4332C34.9468 46.4332 34.6296 46.3615 34.4723 46.298C34.4365 46.0194 34.4006 45.7463 34.3647 45.465C34.4861 45.4374 34.6158 45.4153 34.7371 45.4015L34.8309 45.8677L34.8282 45.8732Z" fill="white"/>
<path d="M38.8472 44.9907C38.8472 44.0583 39.4513 43.2832 40.3754 43.2832C40.7477 43.2832 41.0346 43.4184 41.2222 43.6501C41.4291 43.9149 41.4953 44.268 41.4953 44.5907C41.4594 44.6762 41.3243 44.8417 41.2525 44.85C40.8277 44.8638 39.8816 44.8721 39.4292 44.8721C39.4209 45.2665 39.5009 45.5617 39.6664 45.7548C39.8816 46.0058 40.1105 46.0499 40.4057 46.0499C40.7367 46.0499 41.1091 45.9203 41.3601 45.821C41.396 45.9203 41.4236 46.0444 41.4401 46.1437C41.0457 46.3368 40.6071 46.4444 40.2981 46.4444C39.3658 46.4444 38.8472 45.8348 38.8472 45.0017V44.9934V44.9907ZM40.2898 43.6197C40.0471 43.6197 39.8816 43.7052 39.7575 43.8432C39.6637 43.9508 39.4789 44.1742 39.4568 44.5383C39.865 44.5383 40.4471 44.53 40.8553 44.5162C40.9133 44.5162 40.9491 44.4942 40.9491 44.4362C40.9491 44.1935 40.8636 43.9618 40.756 43.8321C40.6484 43.7025 40.505 43.617 40.2954 43.617H40.2871L40.2898 43.6197Z" fill="white"/>
<path d="M41.9258 43.7713C41.9258 43.6775 41.9341 43.5699 41.9341 43.4761C42.2209 43.4265 42.8747 43.2885 42.9243 43.2885C42.9381 43.2885 42.9381 43.2968 42.9381 43.3023C42.9602 43.4458 42.9961 43.6334 43.0181 43.7327L43.054 43.7409C43.7657 43.3023 43.9229 43.2803 44.2319 43.2803C44.6042 43.2803 44.8635 43.5396 44.9932 43.7602C45.1008 43.9395 45.1366 44.1271 45.1366 44.2926C45.1366 44.8167 45.1228 45.4926 45.1146 46.0305L45.5752 46.0525C45.5752 46.1463 45.5752 46.2622 45.567 46.3615H44.8139C44.5905 46.3615 44.3256 46.3698 44.1243 46.3698C44.1243 46.276 44.1243 46.1629 44.1326 46.0608L44.5491 46.0387C44.5629 46.0305 44.5711 46.0249 44.5711 46.0112C44.5794 45.6222 44.5794 45.1064 44.5794 44.7119C44.5794 44.425 44.5794 44.1437 44.4856 43.9864C44.3505 43.7437 44.1684 43.7134 43.9974 43.7134C43.7326 43.7134 43.3298 43.9064 43.043 44.1299C43.0347 44.6761 43.0292 45.5091 43.0292 46.0332L43.545 46.0553C43.545 46.1546 43.5367 46.2704 43.5367 46.3642H42.7257C42.4968 46.3642 42.2458 46.3725 42.0306 46.3725C42.0306 46.2732 42.0306 46.1574 42.0389 46.0553L42.4637 46.0332C42.4775 46.0332 42.4913 46.0194 42.4913 46.0056L42.483 43.7878L41.9313 43.774L41.9258 43.7713Z" fill="white"/>
<path d="M48.1705 45.8239C48.1788 45.868 48.1926 45.8873 48.2285 45.9094C48.3636 46.0032 48.645 46.0749 48.896 46.0749C49.2325 46.0749 49.5498 45.9673 49.7153 45.788C49.8808 45.6225 49.9442 45.4515 49.9442 45.2143C49.9442 44.5964 49.6077 44.4888 48.9098 44.1661C48.2781 43.8792 47.8257 43.5482 47.8257 42.9248C47.8257 42.5303 48.0326 42.1717 48.2919 41.9703C48.5567 41.7552 48.9733 41.6338 49.4615 41.6338C49.7925 41.6338 50.1649 41.6972 50.3359 41.791C50.3718 42.1358 50.3994 42.5027 50.4159 42.853C50.2946 42.8668 50.1566 42.8889 50.0215 42.9027L49.9001 42.2269C49.8863 42.1827 49.8725 42.1551 49.856 42.1413C49.7346 42.042 49.5387 41.9979 49.3181 41.9979C49.067 41.9979 48.816 42.0641 48.6422 42.2131C48.4905 42.3427 48.3692 42.5441 48.3692 42.8089C48.3692 43.3054 48.6064 43.4268 49.3539 43.755C50.0711 44.0723 50.4876 44.3867 50.4876 45.0405C50.4876 45.4432 50.3442 45.7936 50.0711 46.0391C49.776 46.3039 49.3677 46.4418 48.7802 46.4418C48.4271 46.4418 47.9692 46.3701 47.7237 46.268C47.6961 45.8956 47.6602 45.5012 47.6299 45.1343C47.765 45.1122 47.9085 45.0846 48.0381 45.0764L48.1678 45.8239H48.1705Z" fill="white"/>
<path d="M52.9735 46.1187C52.4411 46.3918 52.1845 46.4415 51.9252 46.4415C51.5722 46.4415 51.1143 46.1463 51.1143 45.7381C51.1143 45.3298 51.5529 44.7698 52.5128 44.7754H53.001C53.0286 44.0085 52.8493 43.7051 52.4052 43.7051C52.1045 43.7051 51.7873 43.9202 51.5446 44.185C51.4646 44.0995 51.3736 43.9975 51.3018 43.912C51.6025 43.603 52.0135 43.2803 52.579 43.2803C53.1114 43.2803 53.5417 43.6471 53.5417 44.4443C53.5417 44.7892 53.5334 45.6498 53.5279 45.9505C53.5279 46.0222 53.55 46.058 53.5914 46.058L54.0713 46.0443V46.3449C53.972 46.3725 53.561 46.4387 53.2465 46.4387C53.1748 46.3753 53.1031 46.2594 53.0093 46.116H52.9735V46.1187ZM51.6963 45.6801C51.6963 45.9036 51.8977 46.0608 52.1763 46.0608C52.3831 46.0608 52.7004 45.967 52.9735 45.7739C52.9955 45.7601 52.9955 45.7463 52.9955 45.7105V45.1009C52.9597 45.0926 52.808 45.0871 52.5928 45.0871C51.9611 45.0871 51.6963 45.3519 51.6963 45.6746V45.6829V45.6801Z" fill="white"/>
<path d="M54.2368 41.8094C54.2368 41.7101 54.2451 41.6025 54.2451 41.5005C54.554 41.4729 55.3016 41.335 55.3568 41.335C55.3705 41.335 55.3788 41.3432 55.3788 41.3625C55.3705 42.6618 55.3568 44.601 55.3512 46.0299L55.9112 46.0437C55.9112 46.143 55.9112 46.2588 55.9029 46.3581H55.0699C54.8106 46.3581 54.532 46.3664 54.2947 46.3664C54.2947 46.2671 54.2947 46.1512 54.303 46.0492L54.783 46.0271C54.7968 46.0271 54.8051 46.0133 54.8051 45.9995C54.8133 44.7361 54.8189 43.0783 54.8133 41.8204L54.2396 41.8067L54.2368 41.8094Z" fill="white"/>
<path d="M58.5949 46.0521C57.9632 46.4245 57.8115 46.441 57.5246 46.441C57.0447 46.441 56.5978 45.9445 56.5978 45.4563C56.5978 44.8384 56.6061 44.237 56.6061 43.7184L56.1675 43.7102C56.1675 43.6026 56.1758 43.4867 56.1813 43.3791C56.4323 43.3709 57.064 43.3516 57.1495 43.3516C57.1633 43.3516 57.1716 43.3598 57.1716 43.3736C57.1578 43.9198 57.1495 44.4936 57.1495 45.0894C57.1495 45.3901 57.1412 45.5914 57.2571 45.779C57.3784 45.9721 57.5522 46.0383 57.7536 46.0383C58.0046 46.0383 58.2998 45.9031 58.6004 45.6797C58.6087 45.0839 58.6004 44.2591 58.6004 43.7212L58.1398 43.7074C58.1398 43.5998 58.1398 43.4784 58.1481 43.3709C58.4129 43.3709 59.0528 43.3571 59.1466 43.3571C59.1549 43.3571 59.1604 43.3654 59.1604 43.3791C59.1604 44.1901 59.1466 45.1032 59.1466 45.9418C59.1466 46.0135 59.1604 46.0411 59.1963 46.0411L59.6762 46.0328C59.6762 46.1266 59.6762 46.2397 59.668 46.3335C59.5825 46.361 59.1797 46.441 58.857 46.441C58.7853 46.3693 58.7053 46.2397 58.628 46.0604L58.5922 46.0521H58.5949Z" fill="white"/>
<path d="M62.355 46.1181C61.7591 46.4188 61.6074 46.4409 61.3564 46.4409C61.0199 46.4409 60.7026 46.3112 60.482 46.0878C60.2089 45.823 60.0654 45.4644 60.0654 44.9954C60.0654 44.5265 60.2447 44.0769 60.5454 43.7403C60.7909 43.4617 61.155 43.2797 61.6157 43.2797C61.875 43.2797 62.1177 43.3431 62.3274 43.4231L62.355 43.401C62.3467 42.8494 62.3467 42.3666 62.3412 41.837L61.7453 41.8232C61.7453 41.7239 61.7453 41.6163 61.7536 41.5143C62.1122 41.4701 62.8239 41.335 62.8873 41.335C62.9011 41.335 62.9094 41.3432 62.9094 41.3625C62.9094 42.6397 62.8873 44.4934 62.8873 45.8837C62.8873 45.9774 62.9011 46.0354 62.9673 46.0354L63.4556 46.0133V46.314C63.3397 46.3581 62.9039 46.4354 62.617 46.4354C62.5453 46.3774 62.4736 46.2781 62.4018 46.1126H62.3577L62.355 46.1181ZM62.3412 45.674C62.3412 45.0423 62.3412 44.3886 62.3329 43.8424C62.126 43.7265 61.8888 43.6548 61.6295 43.6548C61.3426 43.6548 61.0833 43.7707 60.9178 43.9996C60.7468 44.2286 60.6585 44.5237 60.6585 44.932C60.6585 45.2906 60.7219 45.5416 60.8875 45.7651C61.0392 45.9719 61.2681 46.0602 61.4971 46.0602C61.7977 46.0602 62.057 45.9443 62.2943 45.7816C62.3301 45.7595 62.3384 45.7319 62.3384 45.6823V45.674H62.3412Z" fill="white"/>
<path d="M67.5823 46.4406C66.9589 46.4406 66.4541 46.2034 66.0955 45.8365C65.6928 45.4338 65.4556 44.838 65.4556 44.0794C65.4556 43.1526 65.908 42.4133 66.4541 42.0326C66.8789 41.7457 67.3148 41.6299 67.8113 41.6299C68.2499 41.6299 68.6581 41.7375 69.0167 41.9885C69.5326 42.3554 69.8912 43.0643 69.8912 43.8918C69.8912 44.6394 69.6484 45.3621 69.1436 45.8586C68.763 46.2255 68.2968 46.4406 67.5851 46.4406H67.5768H67.5823ZM67.6899 46.082C68.1147 46.082 68.5009 45.9303 68.7602 45.6379C69.0333 45.3152 69.276 44.8407 69.276 44.0435C69.276 43.3843 69.1105 42.816 68.7657 42.4271C68.4871 42.1264 68.1561 41.9885 67.7258 41.9885C67.3313 41.9885 66.9782 42.1181 66.7052 42.3609C66.3741 42.6616 66.0735 43.2215 66.0735 44.027C66.0735 44.7387 66.2252 45.2324 66.6058 45.6352C66.8927 45.9441 67.2734 46.0793 67.6816 46.0793H67.6899V46.082Z" fill="white"/>
<path d="M70.4731 45.0402C70.4731 44.014 71.1903 43.2803 72.211 43.2803C72.5282 43.2803 72.7627 43.3603 72.8703 43.432C72.8703 43.5313 72.7268 43.8182 72.6413 43.8761C72.5696 43.8485 72.2882 43.6968 71.9958 43.6968C71.7034 43.6968 71.5296 43.7906 71.3779 43.9616C71.2207 44.1409 71.0552 44.4554 71.0552 44.9023C71.0552 45.3105 71.1352 45.5698 71.3145 45.785C71.4855 45.9946 71.7448 46.0498 71.96 46.0498C72.2386 46.0498 72.6137 45.9339 72.8509 45.8346C72.8785 45.9284 72.9089 46.0498 72.9309 46.1518C72.542 46.3394 72.0979 46.4387 71.7889 46.4387C71.0938 46.4387 70.4759 45.9505 70.4759 45.0457V45.0374L70.4731 45.0402Z" fill="white"/>
<path d="M75.6867 46.0521C75.055 46.4245 74.9033 46.441 74.6164 46.441C74.1365 46.441 73.6896 45.9445 73.6896 45.4563C73.6896 44.8384 73.6979 44.237 73.6979 43.7184L73.2593 43.7102C73.2593 43.6026 73.2676 43.4867 73.2731 43.3791C73.5241 43.3709 74.1558 43.3516 74.2413 43.3516C74.2551 43.3516 74.2634 43.3598 74.2634 43.3736C74.2496 43.9198 74.2413 44.4936 74.2413 45.0894C74.2413 45.3901 74.233 45.5914 74.3489 45.779C74.4702 45.9721 74.644 46.0383 74.8454 46.0383C75.0964 46.0383 75.3916 45.9031 75.6922 45.6797C75.7005 45.0839 75.6922 44.2591 75.6922 43.7212L75.2316 43.7074C75.2316 43.5998 75.2316 43.4784 75.2399 43.3709C75.5047 43.3709 76.1446 43.3571 76.2384 43.3571C76.2467 43.3571 76.2522 43.3654 76.2522 43.3791C76.2522 44.1901 76.2384 45.1032 76.2384 45.9418C76.2384 46.0135 76.2522 46.0411 76.2881 46.0411L76.768 46.0328C76.768 46.1266 76.768 46.2397 76.7598 46.3335C76.6743 46.361 76.2715 46.441 75.9488 46.441C75.8771 46.3693 75.7971 46.2397 75.7198 46.0604L75.684 46.0521H75.6867Z" fill="white"/>
<path d="M78.0697 43.6775C78.7814 43.3106 78.889 43.283 79.1896 43.283C79.9151 43.283 80.3537 44.0223 80.3454 44.654C80.3454 44.9988 80.2958 45.2636 80.1744 45.5367C80.053 45.8015 79.9151 46.0249 79.6062 46.2318C79.4489 46.3394 79.1317 46.4415 78.809 46.4415C78.4862 46.4415 78.2766 46.378 78.078 46.276L78.0504 46.2898C78.0587 46.6925 78.0504 47.2663 78.0504 47.6607L78.7179 47.6745C78.7179 47.7738 78.7179 47.8841 78.7097 47.9835C78.4366 47.9835 78.0918 47.9835 77.7773 47.9917C77.5401 47.9917 77.2753 47.9917 77.0601 48C77.0601 47.9007 77.0601 47.7904 77.0684 47.6911L77.4849 47.669C77.4987 47.6607 77.5125 47.6469 77.5125 47.6249V43.7851L76.9663 43.7768C76.9663 43.683 76.9663 43.5754 76.9746 43.4816C77.2477 43.4375 77.9152 43.2803 77.9594 43.2803C77.9731 43.2803 77.9814 43.2885 77.9814 43.3023C78.0035 43.4182 78.0256 43.5534 78.0394 43.6692L78.0752 43.6775H78.0697ZM79.7579 44.825C79.7579 44.5657 79.722 44.3147 79.6062 44.0857C79.4848 43.8623 79.2531 43.7134 78.9827 43.7134C78.7124 43.7134 78.3786 43.8292 78.0725 44.0499C78.0725 44.5961 78.0642 45.2195 78.0642 45.7298C78.0642 45.887 78.4366 46.0967 78.7897 46.0967C78.9965 46.0967 79.242 46.0249 79.4131 45.8456C79.6282 45.6305 79.7579 45.3077 79.7579 44.8333V44.825Z" fill="white"/>
<path d="M82.6986 46.1187C82.1662 46.3918 81.9096 46.4415 81.6503 46.4415C81.2973 46.4415 80.8394 46.1463 80.8394 45.7381C80.8394 45.3298 81.278 44.7698 82.2379 44.7754H82.7261C82.7537 44.0085 82.5744 43.7051 82.1303 43.7051C81.8296 43.7051 81.5124 43.9202 81.2697 44.185C81.1897 44.0995 81.0986 43.9975 81.0269 43.912C81.3276 43.603 81.7386 43.2803 82.3041 43.2803C82.8365 43.2803 83.2668 43.6471 83.2668 44.4443C83.2668 44.7892 83.2585 45.6498 83.253 45.9505C83.253 46.0222 83.2751 46.058 83.3165 46.058L83.7964 46.0443V46.3449C83.6971 46.3725 83.2861 46.4387 82.9716 46.4387C82.8999 46.3753 82.8282 46.2594 82.7344 46.116H82.6986V46.1187ZM81.4214 45.6801C81.4214 45.9036 81.6228 46.0608 81.9014 46.0608C82.1082 46.0608 82.4255 45.967 82.6986 45.7739C82.7206 45.7601 82.7206 45.7463 82.7206 45.7105V45.1009C82.6848 45.0926 82.5331 45.0871 82.3179 45.0871C81.6862 45.0871 81.4214 45.3519 81.4214 45.6746V45.6829V45.6801Z" fill="white"/>
<path d="M84.1494 45.0402C84.1494 44.014 84.8666 43.2803 85.8872 43.2803C86.2045 43.2803 86.4389 43.3603 86.5465 43.432C86.5465 43.5313 86.4031 43.8182 86.3176 43.8761C86.2458 43.8485 85.9645 43.6968 85.6721 43.6968C85.3797 43.6968 85.2059 43.7906 85.0542 43.9616C84.897 44.1409 84.7315 44.4554 84.7315 44.9023C84.7315 45.3105 84.8114 45.5698 84.9907 45.785C85.1618 45.9946 85.4211 46.0498 85.6362 46.0498C85.9148 46.0498 86.29 45.9339 86.5272 45.8346C86.5548 45.9284 86.5851 46.0498 86.6072 46.1518C86.2183 46.3394 85.7741 46.4387 85.4652 46.4387C84.7701 46.4387 84.1522 45.9505 84.1522 45.0457V45.0374L84.1494 45.0402Z" fill="white"/>
<path d="M86.9495 43.7628V43.4621C87.2585 43.418 87.984 43.2828 88.0419 43.2828C88.0557 43.2828 88.0557 43.2911 88.0557 43.3049C88.0557 44.0938 88.0419 45.2717 88.0419 46.033L88.5439 46.0551C88.5439 46.1626 88.5439 46.2647 88.5356 46.364H87.7385C87.4957 46.364 87.2281 46.3723 86.9909 46.3723V46.0551L87.4709 46.033C87.493 46.033 87.4985 46.0192 87.4985 46.0054V43.7793L86.9468 43.7655L86.9495 43.7628ZM87.7467 41.8319C88.0115 41.8319 88.1053 42.047 88.1053 42.2043C88.1053 42.4277 87.9481 42.5904 87.7247 42.5904C87.5012 42.5904 87.3357 42.4194 87.3357 42.2098C87.3357 42.0001 87.4792 41.8291 87.7385 41.8291H87.7467V41.8319Z" fill="white"/>
<path d="M90.4221 46.4418C90.0194 46.4418 89.6746 46.3204 89.4373 46.1053C89.1284 45.8184 88.9629 45.4295 88.9629 44.9219C88.9629 44.4143 89.1505 43.9454 89.567 43.6089C89.8401 43.3854 90.207 43.2861 90.5518 43.2861C90.8966 43.2861 91.1835 43.3579 91.4427 43.5509C91.8013 43.824 92.0027 44.2268 92.0027 44.7923C92.0027 45.3577 91.76 45.8487 91.3848 46.1411C91.1117 46.3563 90.8111 46.4418 90.4304 46.4418H90.4221ZM90.48 46.1246C90.6952 46.1246 90.9104 46.0611 91.0759 45.8874C91.3131 45.6281 91.3986 45.3053 91.3986 44.8171C91.3986 44.4226 91.3048 44.0833 91.1117 43.8627C90.9324 43.6696 90.7449 43.5978 90.5021 43.5978C90.3007 43.5978 90.0635 43.6696 89.898 43.8406C89.6691 44.0778 89.567 44.4281 89.567 44.8667C89.567 45.3329 89.6663 45.6501 89.9035 45.8874C90.0387 46.0391 90.2401 46.1246 90.4718 46.1246H90.48Z" fill="white"/>
<path d="M92.4609 43.7713C92.4609 43.6775 92.4692 43.5699 92.4692 43.4761C92.7561 43.4265 93.4098 43.2885 93.4595 43.2885C93.4733 43.2885 93.4733 43.2968 93.4733 43.3023C93.4954 43.4458 93.5312 43.6334 93.5533 43.7327L93.5891 43.7409C94.3008 43.3023 94.4581 43.2803 94.767 43.2803C95.1394 43.2803 95.3987 43.5396 95.5283 43.7602C95.6359 43.9395 95.6718 44.1271 95.6718 44.2926C95.6718 44.8167 95.658 45.4926 95.6497 46.0305L96.1104 46.0525C96.1104 46.1463 96.1104 46.2622 96.1021 46.3615H95.349C95.1256 46.3615 94.8608 46.3698 94.6594 46.3698C94.6594 46.276 94.6594 46.1629 94.6677 46.0608L95.0842 46.0387C95.098 46.0305 95.1063 46.0249 95.1063 46.0112C95.1146 45.6222 95.1146 45.1064 95.1146 44.7119C95.1146 44.425 95.1146 44.1437 95.0208 43.9864C94.8856 43.7437 94.7063 43.7134 94.5325 43.7134C94.2677 43.7134 93.865 43.9064 93.5781 44.1299C93.5698 44.6761 93.5643 45.5091 93.5643 46.0332L94.0802 46.0553C94.0802 46.1546 94.0719 46.2704 94.0719 46.3642H93.2609C93.0319 46.3642 92.7809 46.3725 92.5658 46.3725C92.5658 46.2732 92.5658 46.1574 92.574 46.0553L92.9988 46.0332C93.0126 46.0332 93.0264 46.0194 93.0264 46.0056L93.0181 43.7878L92.4665 43.774L92.4609 43.7713Z" fill="white"/>
<path d="M98.3695 46.1187C97.8371 46.3918 97.5805 46.4415 97.3212 46.4415C96.9682 46.4415 96.5103 46.1463 96.5103 45.7381C96.5103 45.3298 96.9489 44.7698 97.9088 44.7754H98.397C98.4246 44.0085 98.2453 43.7051 97.8012 43.7051C97.5005 43.7051 97.1833 43.9202 96.9406 44.185C96.8606 44.0995 96.7695 43.9975 96.6978 43.912C96.9985 43.603 97.4095 43.2803 97.975 43.2803C98.5074 43.2803 98.9377 43.6471 98.9377 44.4443C98.9377 44.7892 98.9294 45.6498 98.9239 45.9505C98.9239 46.0222 98.946 46.058 98.9874 46.058L99.4673 46.0443V46.3449C99.368 46.3725 98.957 46.4387 98.6425 46.4387C98.5708 46.3753 98.4991 46.2594 98.4053 46.116H98.3695V46.1187ZM97.0923 45.6801C97.0923 45.9036 97.2937 46.0608 97.5723 46.0608C97.7791 46.0608 98.0964 45.967 98.3695 45.7739C98.3915 45.7601 98.3915 45.7463 98.3915 45.7105V45.1009C98.3557 45.0926 98.204 45.0871 97.9888 45.0871C97.3571 45.0871 97.0923 45.3519 97.0923 45.6746V45.6829V45.6801Z" fill="white"/>
<path d="M99.6328 41.8094C99.6328 41.7101 99.6411 41.6025 99.6411 41.5005C99.95 41.4729 100.698 41.335 100.753 41.335C100.767 41.335 100.775 41.3432 100.775 41.3625C100.767 42.6618 100.753 44.601 100.747 46.0299L101.307 46.0437C101.307 46.143 101.307 46.2588 101.299 46.3581H100.466C100.207 46.3581 99.928 46.3664 99.6907 46.3664C99.6907 46.2671 99.6907 46.1512 99.699 46.0492L100.179 46.0271C100.193 46.0271 100.201 46.0133 100.201 45.9995C100.209 44.7361 100.215 43.0783 100.209 41.8204L99.6356 41.8067L99.6328 41.8094Z" fill="white"/>
<path d="M0.0297852 38.3227L1.36764 36.4773C2.17035 37.1393 3.10271 37.5917 4.0599 37.5917C4.72193 37.5917 5.07501 37.3104 5.07501 36.8718V36.8442C5.07501 36.4359 4.79365 36.2235 3.62406 35.8153C1.7621 35.1808 0.465622 34.5188 0.465622 32.7148V32.6734C0.465622 30.8831 1.83382 29.6143 3.97439 29.6143C5.31224 29.6143 6.48459 29.9811 7.4997 30.8252L6.21702 32.7148C5.54119 32.1934 4.72193 31.8128 3.91922 31.8128C3.3427 31.8128 3.0172 32.0803 3.0172 32.461V32.4748C3.0172 32.9272 3.3427 33.1092 4.58125 33.603C6.457 34.2099 7.62659 34.9712 7.62659 36.6483V36.6759C7.62659 38.5931 6.16185 39.7902 4.03231 39.7902C2.56757 39.7902 1.17179 39.3378 0.0297852 38.3227Z" fill="white"/>
<path d="M8.39062 29.7666H11.0112L13 33.4023L14.9889 29.7666H17.6094V39.6336H15.1158V34.0808L13 37.7468H12.9586L10.8732 34.0946V39.6336H8.39338V29.7666H8.39062Z" fill="white"/>
<path d="M18.4839 34.8112V34.5988C18.4839 31.639 20.401 29.5674 23.0519 29.5674C25.7028 29.5674 27.6199 31.6252 27.6199 34.5712V34.7836C27.6199 37.7435 25.7028 39.8289 23.0381 39.8289C20.3734 39.8289 18.4839 37.7848 18.4839 34.8112ZM25.0242 34.7836V34.6292C25.0242 32.9244 24.2215 31.8817 23.0353 31.8817C21.8492 31.8817 21.063 32.9106 21.063 34.6154V34.7698C21.063 36.4746 21.8658 37.5173 23.0519 37.5173C24.238 37.5173 25.0242 36.4884 25.0242 34.7836Z" fill="white"/>
<path d="M77.4186 22.8429C77.3662 21.7146 77.0987 20.6085 76.3539 19.7285C75.9925 19.301 75.4877 18.9424 74.9746 18.7107C73.3637 17.9824 71.7114 17.3425 70.0867 16.6446C69.0853 16.2143 69.6894 14.4102 70.0425 13.8503C70.3708 13.3317 70.4535 12.6586 70.677 12.0655C70.7404 11.8973 70.928 11.7759 71.0576 11.6352C71.179 11.5028 71.3583 11.3925 71.408 11.238C71.5679 10.7498 71.6893 10.2477 71.8052 9.74568C71.8769 9.42845 71.9403 9.12226 71.6093 8.85745C71.499 8.76918 71.5238 8.4823 71.5321 8.28921C71.5376 8.12094 71.5486 7.95268 71.5597 7.78441C71.6866 7.74027 71.8162 7.6989 71.9403 7.652C71.9486 7.53063 71.9597 7.41202 71.9597 7.28789C71.9597 6.63413 71.8383 6.00796 71.6231 5.42868C71.5211 4.70873 71.1266 4.13221 70.5501 3.67982C70.0177 3.1033 69.3612 2.6454 68.6192 2.34748C68.4261 1.99716 68.1447 1.77648 67.8302 1.77648C67.6592 1.77648 67.4992 1.84268 67.3558 1.95854C67.1682 1.67166 66.9144 1.49512 66.6331 1.49512C66.3324 1.49512 66.0621 1.69924 65.8717 2.02198C65.8552 2.02198 65.8386 2.0275 65.8248 2.03026C65.6648 1.87027 65.4745 1.77648 65.2704 1.77648C64.9283 1.77648 64.6277 2.03853 64.4346 2.44127C62.5919 3.27984 61.3092 5.13077 61.3092 7.28789C61.3092 7.40926 61.3203 7.53063 61.3285 7.652C61.5134 7.72097 61.7064 7.78717 61.9051 7.85061C61.9133 7.99681 61.9216 8.14301 61.9299 8.28921C61.9382 8.4823 61.9602 8.76918 61.8526 8.85745C61.5216 9.12226 61.5823 9.43121 61.6568 9.74568C61.7727 10.2477 61.894 10.7498 62.054 11.238C62.1037 11.3925 62.2857 11.5028 62.4043 11.6352C62.534 11.7787 62.7216 11.8973 62.785 12.0655C63.0112 12.6586 63.105 13.3206 63.4195 13.8503C63.8829 14.6282 64.3573 16.2281 63.3753 16.6446C62.1423 17.1715 60.8927 17.668 59.6597 18.1976C60.9892 18.7852 62.3161 19.3755 63.6263 20.0127C64.2498 20.3161 64.8649 20.785 65.3062 21.3395C66.2138 22.487 66.5393 23.9297 66.6027 25.3999C66.6138 25.6786 66.6193 25.9572 66.6248 26.2358H77.4297C77.4297 25.091 77.4711 23.9628 77.4186 22.8429Z" fill="white"/>
<path d="M42.3338 16.6641C41.2167 16.1786 41.9339 14.4187 42.2897 13.8559C42.6207 13.3346 42.7007 12.6588 42.9269 12.0629C42.9903 11.8947 43.1779 11.7733 43.3103 11.6299C43.4317 11.4975 43.6138 11.3871 43.6634 11.2326C43.8234 10.7416 43.9475 10.2368 44.0634 9.7348C44.1351 9.41757 44.1986 9.10863 43.8648 8.84105C43.7544 8.75278 43.7793 8.4659 43.7848 8.27005C43.8179 7.42596 43.9144 6.58463 43.9006 5.74054C43.8841 4.76129 43.371 4.02202 42.5793 3.48688C42.5986 3.4455 42.6097 3.40413 42.6069 3.36275C42.5821 2.97656 41.6194 2.70072 40.2595 2.64003C39.7823 2.61796 39.2581 2.62072 38.7065 2.65658C37.6555 2.72279 36.6955 2.8414 36.0307 3.1007C35.799 3.19172 35.5811 3.32689 35.3632 3.47309C35.2087 3.57791 35.0653 3.69101 34.9329 3.81238C34.3784 4.31166 34.0336 4.94886 34.0198 5.7433C34.006 6.58463 34.1026 7.42872 34.1357 8.27281C34.144 8.46866 34.166 8.75554 34.0557 8.84381C33.7219 9.10863 33.7854 9.42033 33.8571 9.73756C33.9729 10.2424 34.0971 10.7444 34.2571 11.2354C34.3067 11.3899 34.4888 11.503 34.6101 11.6326C34.7425 11.7761 34.9274 11.8974 34.9936 12.0657C35.2198 12.6615 35.3025 13.3346 35.6308 13.8587C35.9866 14.4214 36.6569 16.1841 35.5866 16.6668C33.9674 17.395 32.2958 18.0074 30.6793 18.7412C30.1663 18.9729 29.6559 19.3342 29.2946 19.7646C28.547 20.65 28.2795 21.7589 28.2243 22.8927C28.1719 24.0209 28.2133 25.1518 28.2133 26.3021H39.134C39.1395 26.0208 39.145 25.7422 39.1561 25.4608C39.2223 23.9823 39.5478 22.5368 40.4581 21.381C40.8994 20.8238 41.5173 20.3521 42.1435 20.0487C43.4483 19.417 44.7696 18.8267 46.0909 18.2419C44.8413 17.7095 43.5751 17.2075 42.3256 16.6668L42.3338 16.6641Z" fill="white"/>
<path d="M65.7009 25.9959C65.6374 24.545 65.3147 23.1216 64.4209 21.9906C63.9879 21.4417 63.381 20.9783 62.7659 20.6804C60.8294 19.7425 58.8461 18.9205 56.8931 18.024C55.7594 17.5026 56.4159 15.1469 56.8407 14.4269C57.2351 13.7594 57.3344 12.8932 57.6048 12.1319C57.682 11.9167 57.9055 11.7595 58.0627 11.5774C58.2061 11.4092 58.424 11.2657 58.4847 11.0671C58.6778 10.4382 58.824 9.79271 58.9619 9.14723C59.0502 8.74174 59.1219 8.34452 58.7247 8.00247C58.5923 7.88937 58.6199 7.5225 58.6309 7.27148C58.6695 6.19016 58.7854 5.1116 58.7689 4.03304C58.7495 2.76967 58.1234 1.81524 57.1634 1.12562C55.8256 0.165679 54.3663 -0.0798241 52.8602 0.0194806C51.3541 -0.0770656 49.8921 0.168438 48.557 1.12562C47.5971 1.81524 46.9709 2.76967 46.9516 4.03304C46.935 5.1116 47.0509 6.19292 47.0895 7.27148C47.0978 7.51974 47.1254 7.88937 46.9957 8.00247C46.5985 8.34176 46.673 8.73898 46.7585 9.14723C46.8964 9.79271 47.0454 10.4382 47.2357 11.0671C47.2964 11.2657 47.5143 11.4092 47.6578 11.5774C47.815 11.7595 48.0384 11.9167 48.1157 12.1319C48.386 12.8932 48.4853 13.7594 48.8798 14.4269C49.3046 15.1469 50.1955 17.3647 48.8274 18.024C46.8909 18.9536 44.891 19.7425 42.9546 20.6804C42.3394 20.9783 41.7326 21.4417 41.2995 21.9906C40.4058 23.1244 40.083 24.545 40.0196 25.9959C39.9561 27.4386 40.0058 28.8895 40.0058 30.3626H65.7147C65.7147 28.8895 65.7643 27.4414 65.7009 25.9959ZM59.8253 26.3325H59.7398L59.7095 26.4152C59.5385 26.8786 59.2792 27.2979 58.9399 27.662C58.7357 27.8799 58.504 28.0758 58.2558 28.2441C58.0654 28.371 57.8641 28.4785 57.6599 28.5668C57.6268 28.5806 57.5965 28.5916 57.5606 28.6054L57.5358 28.6137C57.4834 28.633 57.431 28.6523 57.3758 28.6716C57.3455 28.6827 57.3151 28.6909 57.2876 28.702C56.6255 28.9089 55.958 28.9254 55.3015 28.7571C55.1635 28.7213 55.0256 28.6771 54.8739 28.6192L54.7911 28.5889C54.6891 28.5503 54.5953 28.5034 54.4988 28.4565C54.4629 28.4399 54.4298 28.4206 54.3939 28.3985L54.3388 28.3682C53.5471 27.9324 52.9733 27.2483 52.6313 26.3325L52.5871 26.2111L52.4602 26.1918C51.9389 26.109 51.4837 25.9159 51.1031 25.6208C50.8052 25.3891 50.5266 25.1187 50.259 24.8567L50.2066 24.807C50.1818 24.7822 50.1487 24.716 50.1459 24.6608C50.1349 24.5036 50.0825 24.3657 49.9831 24.2277C49.3321 23.3202 48.888 22.2913 48.6646 21.1741C48.535 20.5314 48.5212 19.9135 48.6205 19.3342C48.6701 19.0446 48.7749 18.7908 48.9349 18.5812L49.0094 18.4819L48.9625 18.366C48.9322 18.2943 48.9211 18.2226 48.9322 18.1536C48.9625 17.9357 49.1501 17.7729 49.3653 17.7729C49.3846 17.7729 49.4039 17.7729 49.4259 17.7785C49.6659 17.8116 49.8369 18.0295 49.8066 18.264C49.779 18.4736 49.5914 18.6419 49.3818 18.6474H49.2825L49.2191 18.7274C49.0342 18.9508 48.9294 19.2349 48.8936 19.588C48.7943 20.6142 48.9984 21.6624 49.5197 22.7851C49.677 23.1244 49.8728 23.4443 50.0631 23.7533L50.0769 23.7754C50.1321 23.8664 50.19 23.9574 50.2424 24.0512C50.2949 24.1395 50.3748 24.1836 50.4411 24.2195C50.4521 24.225 50.4659 24.2333 50.4769 24.2415C50.5155 24.2691 50.5569 24.2967 50.5983 24.3243C50.681 24.3767 50.7583 24.4291 50.8134 24.487C51.1996 24.8925 51.5389 25.1518 51.9141 25.3311C52.6589 25.6842 53.3981 25.6153 54.107 25.1187C54.2781 25.0001 54.427 24.8594 54.5787 24.7215C54.6698 24.636 54.7608 24.5532 54.8573 24.4732C54.9236 24.4181 55.0063 24.3684 55.0891 24.3188C55.136 24.2912 55.1829 24.2636 55.227 24.2333L55.2463 24.2195C55.2877 24.1946 55.3484 24.1588 55.3925 24.0926C56.1428 23.0278 56.5814 21.9493 56.7331 20.7935C56.78 20.4376 56.7883 20.0349 56.7607 19.5659C56.7386 19.2101 56.6338 18.9287 56.438 18.7081L56.3855 18.6501L56.3083 18.6363C56.0738 18.5977 55.9028 18.3743 55.9359 18.1481C55.969 17.9053 56.1924 17.7371 56.4297 17.7702C56.6697 17.8033 56.8407 18.0212 56.8103 18.2557C56.8021 18.3108 56.7855 18.366 56.7552 18.4157L56.689 18.5343L56.7634 18.6474C56.9069 18.8653 57.0034 19.1301 57.0448 19.4335C57.1607 20.2638 57.0558 21.1465 56.7303 22.1313C56.4793 22.8844 56.118 23.5988 55.6545 24.2581C55.5994 24.3381 55.5746 24.4236 55.558 24.4953C55.5525 24.5174 55.547 24.5422 55.5387 24.5615C55.5277 24.5946 55.5166 24.6332 55.5056 24.6691C55.4973 24.705 55.4808 24.7601 55.4697 24.7767C54.8353 25.5187 54.1898 25.9545 53.4367 26.1394C53.4174 26.1449 53.3981 26.1476 53.3788 26.1504C53.354 26.1532 53.3292 26.1587 53.3043 26.1642C53.274 26.1725 53.2409 26.1807 53.205 26.189L52.9264 26.2635L53.0285 26.498C53.3954 27.3365 54.0602 27.9682 54.9539 28.3268C55.4256 28.5116 55.9166 28.5889 56.4159 28.5558H56.4407C56.5345 28.5475 56.6255 28.5365 56.7166 28.5199C56.7552 28.5144 56.7938 28.5061 56.8379 28.5006C56.8848 28.4923 56.9317 28.4813 56.9759 28.4703C57.9772 28.233 58.8351 27.5682 59.2764 26.6883C59.3095 26.6248 59.3371 26.5586 59.3702 26.4731L59.4364 26.3104L59.293 26.2745C58.3854 26.0538 57.751 25.2484 57.751 24.316C57.751 23.4912 58.2447 22.7575 59.0116 22.4458C59.2268 22.3492 59.4502 22.2968 59.6764 22.2858C60.7605 22.2389 61.6625 23.014 61.7783 24.0981C61.7866 24.1643 61.7866 24.2305 61.7894 24.316C61.7894 25.4139 60.9287 26.2994 59.8309 26.3325H59.8253Z" fill="white"/>
<path d="M61.2811 24.3654C61.3123 23.5266 60.6588 22.8213 59.8215 22.7901C58.9841 22.759 58.2801 23.4138 58.2489 24.2526C58.2177 25.0915 58.8712 25.7967 59.7085 25.8279C60.5458 25.859 61.2499 25.2042 61.2811 24.3654Z" fill="white"/>
</g>
<defs>
<clipPath id="clip0_32_4552">
<rect width="101.305" height="48" fill="white"/>
</clipPath>
</defs>
</svg>
