<svg width="148" height="70" viewBox="0 0 148 70" fill="none" xmlns="http://www.w3.org/2000/svg">
<g clip-path="url(#clip0_101_953)">
<path d="M54.8906 48.0873C54.0418 47.0494 52.9918 46.5345 51.7448 46.5345C51.1937 46.5345 50.6868 46.6351 50.2202 46.8362C49.7535 47.0374 49.3512 47.3069 49.0133 47.6488C48.6754 47.9908 48.4099 48.4011 48.2168 48.8758C48.0237 49.3504 47.9272 49.8613 47.9272 50.4125C47.9272 50.9636 48.0237 51.4906 48.2168 51.9652C48.4099 52.4399 48.6794 52.8502 49.0214 53.2002C49.3633 53.5502 49.7656 53.8238 50.2282 54.0249C50.6908 54.226 51.1896 54.3226 51.7247 54.3226C52.8993 54.3226 53.9533 53.8238 54.8906 52.8261V57.1707L54.5165 57.3034C53.9533 57.5046 53.4303 57.6494 52.9436 57.7419C52.4568 57.8344 51.9741 57.8827 51.5034 57.8827C50.5299 57.8827 49.5966 57.6977 48.7036 57.3316C47.8105 56.9615 47.0261 56.4466 46.3422 55.7788C45.6624 55.111 45.1153 54.3186 44.705 53.4014C44.2946 52.4842 44.0854 51.4825 44.0854 50.3964C44.0854 49.3102 44.2866 48.3166 44.6929 47.4115C45.0992 46.5064 45.6423 45.7259 46.3221 45.0702C47.002 44.4145 47.7904 43.9036 48.6915 43.5335C49.5886 43.1634 50.5339 42.9824 51.5195 42.9824C52.0827 42.9824 52.6338 43.0428 53.1769 43.1594C53.72 43.2801 54.2912 43.4611 54.8906 43.7105V48.0913V48.0873Z" fill="#575756"/>
<path d="M55.6107 52.5963C55.6107 51.8842 55.7555 51.2205 56.0411 50.601C56.3268 49.9815 56.729 49.4464 57.2399 48.9919C57.7508 48.5373 58.3623 48.1793 59.0663 47.9138C59.7702 47.6523 60.5426 47.5195 61.3793 47.5195C62.2161 47.5195 62.9683 47.6483 63.6723 47.9017C64.3763 48.1592 64.9878 48.5132 65.5067 48.9677C66.0256 49.4223 66.4279 49.9654 66.7135 50.5969C66.9991 51.2285 67.144 51.9245 67.144 52.6848C67.144 53.4451 66.9951 54.141 66.7055 54.7726C66.4118 55.4041 66.0095 55.9472 65.4987 56.4018C64.9878 56.8564 64.3723 57.2104 63.6522 57.4598C62.9362 57.7092 62.1557 57.8339 61.319 57.8339C60.4823 57.8339 59.734 57.7092 59.0341 57.4598C58.3341 57.2104 57.7347 56.8564 57.2279 56.3937C56.721 55.9311 56.3268 55.38 56.0371 54.7364C55.7515 54.0927 55.6067 53.3807 55.6067 52.5922L55.6107 52.5963ZM59.1869 52.6325C59.1869 52.9583 59.2473 53.252 59.3639 53.5215C59.4806 53.791 59.6375 54.0243 59.8306 54.2255C60.0237 54.4266 60.253 54.5795 60.5225 54.6921C60.792 54.8047 61.0736 54.8611 61.3753 54.8611C61.677 54.8611 61.9586 54.8047 62.2282 54.6921C62.4977 54.5795 62.727 54.4226 62.9201 54.2255C63.1132 54.0243 63.27 53.791 63.3867 53.5215C63.5034 53.252 63.5637 52.9623 63.5637 52.6526C63.5637 52.3428 63.5034 52.0693 63.3867 51.7997C63.266 51.5302 63.1132 51.2969 62.9201 51.0958C62.727 50.8946 62.4937 50.7418 62.2282 50.6291C61.9586 50.5165 61.677 50.4602 61.3753 50.4602C61.0736 50.4602 60.792 50.5165 60.5225 50.6291C60.253 50.7418 60.0237 50.8986 59.8306 51.0958C59.6375 51.2969 59.4806 51.5262 59.3639 51.7877C59.2433 52.0492 59.1869 52.3308 59.1869 52.6284V52.6325Z" fill="#575756"/>
<path d="M67.7836 47.879H71.1747V49.0979C71.6374 48.5347 72.104 48.1606 72.5787 47.9635C73.0534 47.7704 73.6085 47.6738 74.2441 47.6738C74.9199 47.6738 75.4952 47.7824 75.9779 47.9997C76.4566 48.2169 76.8669 48.5267 77.2049 48.9249C77.4784 49.2507 77.6675 49.6128 77.768 50.011C77.8686 50.4093 77.9169 50.8679 77.9169 51.3788V57.4853H74.5257V52.6339C74.5257 52.1592 74.4895 51.777 74.4211 51.4834C74.3527 51.1897 74.232 50.9564 74.055 50.7794C73.9062 50.6306 73.7372 50.5219 73.5482 50.4616C73.3591 50.3972 73.162 50.3691 72.9488 50.3691C72.3735 50.3691 71.935 50.5421 71.6293 50.884C71.3236 51.2259 71.1707 51.7167 71.1707 52.3523V57.4813H67.7795V47.875L67.7836 47.879Z" fill="#575756"/>
<path d="M85.6726 50.353C85.0491 50.0272 84.4376 49.8663 83.8382 49.8663C83.5245 49.8663 83.275 49.9307 83.0779 50.0554C82.8848 50.1801 82.7883 50.349 82.7883 50.5622C82.7883 50.6749 82.8044 50.7634 82.8366 50.8358C82.8687 50.9042 82.9371 50.9685 83.0417 51.0329C83.1463 51.0973 83.3032 51.1495 83.5084 51.2018C83.7135 51.2501 83.9871 51.3145 84.321 51.3909C85.2583 51.58 85.9582 51.9139 86.4168 52.3926C86.8794 52.8753 87.1087 53.4868 87.1087 54.239C87.1087 54.8022 86.9961 55.3051 86.7708 55.7556C86.5455 56.2062 86.2358 56.5843 85.8335 56.89C85.4353 57.1958 84.9525 57.4331 84.3934 57.602C83.8342 57.771 83.2147 57.8555 82.5389 57.8555C81.2395 57.8555 79.9603 57.4854 78.7012 56.7492L79.9362 54.3517C80.8855 54.9993 81.7826 55.3252 82.6314 55.3252C82.9452 55.3252 83.1986 55.2568 83.3998 55.12C83.6009 54.9832 83.6974 54.8062 83.6974 54.597C83.6974 54.4723 83.6813 54.3678 83.6492 54.2873C83.617 54.2068 83.5526 54.1304 83.452 54.062C83.3515 53.9936 83.2067 53.9293 83.0136 53.873C82.8205 53.8166 82.567 53.7563 82.2533 53.696C81.2033 53.4827 80.4712 53.169 80.0528 52.7506C79.6345 52.3322 79.4253 51.757 79.4253 51.0168C79.4253 50.4818 79.5258 49.995 79.7229 49.5646C79.9241 49.1341 80.2097 48.7681 80.5838 48.4704C80.9579 48.1687 81.4125 47.9394 81.9435 47.7785C82.4745 47.6176 83.0618 47.5371 83.7135 47.5371C84.7755 47.5371 85.8054 47.7423 86.803 48.1566L85.6605 50.3651L85.6726 50.353Z" fill="#575756"/>
<path d="M90.9183 47.8789V53.2895C90.9183 54.4762 91.4935 55.0676 92.64 55.0676C93.7865 55.0676 94.3618 54.4762 94.3618 53.2895V47.8789H97.7529V53.9452C97.7529 55.2446 97.3265 56.2181 96.4697 56.8657C95.6128 57.5134 94.3376 57.8393 92.64 57.8393C90.9424 57.8393 89.6672 57.5134 88.8104 56.8657C87.9535 56.2181 87.5271 55.2446 87.5271 53.9452V47.8789H90.9183Z" fill="#575756"/>
<path d="M102.134 41.9453V57.4893H98.7427V41.9453H102.134Z" fill="#575756"/>
<path d="M107.331 50.7065V57.4848H103.94V50.7065H102.818V47.8785H103.94V44.9941H107.331V47.8785H109.258V50.7065H107.331Z" fill="#575756"/>
<path d="M109.415 52.5963C109.415 51.8842 109.56 51.2205 109.845 50.601C110.131 49.9815 110.533 49.4464 111.044 48.9919C111.555 48.5373 112.167 48.1793 112.871 47.9138C113.575 47.6523 114.347 47.5195 115.184 47.5195C116.02 47.5195 116.773 47.6483 117.477 47.9017C118.181 48.1592 118.792 48.5132 119.311 48.9677C119.83 49.4223 120.232 49.9654 120.518 50.5969C120.803 51.2285 120.948 51.9245 120.948 52.6848C120.948 53.4451 120.799 54.141 120.51 54.7726C120.216 55.4041 119.814 55.9472 119.303 56.4018C118.792 56.8564 118.177 57.2104 117.457 57.4598C116.74 57.7092 115.96 57.8339 115.127 57.8339C114.295 57.8339 113.542 57.7092 112.842 57.4598C112.142 57.2104 111.543 56.8564 111.036 56.3937C110.529 55.9311 110.135 55.38 109.845 54.7364C109.56 54.0927 109.415 53.3807 109.415 52.5922V52.5963ZM112.991 52.6325C112.991 52.9583 113.052 53.252 113.168 53.5215C113.285 53.791 113.442 54.0243 113.635 54.2255C113.828 54.4266 114.057 54.5795 114.327 54.6921C114.596 54.8047 114.878 54.8611 115.18 54.8611C115.481 54.8611 115.763 54.8047 116.032 54.6921C116.302 54.5795 116.531 54.4226 116.724 54.2255C116.917 54.0243 117.074 53.791 117.191 53.5215C117.308 53.252 117.368 52.9623 117.368 52.6526C117.368 52.3428 117.308 52.0693 117.191 51.7997C117.07 51.5302 116.917 51.2969 116.724 51.0958C116.531 50.8946 116.298 50.7418 116.032 50.6291C115.763 50.5165 115.481 50.4602 115.18 50.4602C114.878 50.4602 114.596 50.5165 114.327 50.6291C114.057 50.7418 113.828 50.8986 113.635 51.0958C113.442 51.2969 113.285 51.5262 113.168 51.7877C113.048 52.0492 112.991 52.3308 112.991 52.6284V52.6325Z" fill="#575756"/>
<path d="M121.588 47.879H124.979V49.4519C125.341 48.8766 125.784 48.4382 126.311 48.1324C126.834 47.8267 127.445 47.6738 128.145 47.6738H128.435C128.539 47.6738 128.664 47.6859 128.801 47.71V50.9484C128.35 50.7231 127.863 50.6104 127.34 50.6104C126.552 50.6104 125.965 50.8438 125.57 51.3144C125.176 51.7811 124.979 52.4649 124.979 53.366V57.4853H121.588V47.879Z" fill="#575756"/>
<path d="M132.57 53.2537C132.57 54.7139 133.258 55.4461 134.63 55.4461C135.366 55.4461 135.921 55.1444 136.295 54.549H139.574C138.91 56.7454 137.257 57.8436 134.61 57.8436C133.797 57.8436 133.057 57.723 132.381 57.4776C131.705 57.2362 131.13 56.8862 130.647 56.4397C130.164 55.9932 129.794 55.4541 129.533 54.8306C129.271 54.2071 129.139 53.5071 129.139 52.7347C129.139 51.9624 129.263 51.2141 129.513 50.5705C129.762 49.9269 130.116 49.3798 130.579 48.9332C131.041 48.4867 131.601 48.1367 132.256 47.8954C132.912 47.654 133.652 47.5293 134.477 47.5293C135.302 47.5293 136.018 47.65 136.669 47.8954C137.321 48.1408 137.868 48.4907 138.319 48.9534C138.769 49.416 139.111 49.9792 139.348 50.6469C139.586 51.3147 139.702 52.067 139.702 52.9037V53.2577H132.566L132.57 53.2537ZM136.541 51.2866C136.428 50.8119 136.199 50.4337 135.849 50.1441C135.499 49.8585 135.076 49.7137 134.573 49.7137C134.05 49.7137 133.62 49.8504 133.29 50.124C132.96 50.3975 132.751 50.7877 132.663 51.2866H136.541Z" fill="#575756"/>
<path d="M146.288 50.353C145.664 50.0272 145.053 49.8663 144.453 49.8663C144.139 49.8663 143.89 49.9307 143.693 50.0554C143.5 50.1801 143.403 50.349 143.403 50.5622C143.403 50.6749 143.419 50.7634 143.452 50.8358C143.484 50.9042 143.552 50.9685 143.657 51.0329C143.761 51.0973 143.918 51.1495 144.123 51.2018C144.329 51.2501 144.602 51.3145 144.936 51.3909C145.873 51.58 146.573 51.9139 147.032 52.3926C147.494 52.8753 147.724 53.4868 147.724 54.239C147.724 54.8022 147.611 55.3051 147.386 55.7556C147.161 56.2062 146.851 56.5843 146.449 56.89C146.05 57.1958 145.568 57.4331 145.008 57.602C144.449 57.771 143.83 57.8555 143.154 57.8555C141.855 57.8555 140.575 57.4854 139.316 56.7492L140.551 54.3517C141.501 54.9993 142.398 55.3252 143.246 55.3252C143.56 55.3252 143.814 55.2568 144.015 55.12C144.216 54.9832 144.312 54.8062 144.312 54.597C144.312 54.4723 144.296 54.3678 144.264 54.2873C144.232 54.2068 144.168 54.1304 144.067 54.062C143.966 53.9936 143.822 53.9293 143.629 53.873C143.435 53.8166 143.182 53.7563 142.872 53.696C141.822 53.4827 141.09 53.169 140.672 52.7506C140.253 52.3322 140.044 51.757 140.044 51.0168C140.044 50.4818 140.145 49.995 140.346 49.5646C140.547 49.1341 140.833 48.7681 141.207 48.4704C141.581 48.1687 142.036 47.9394 142.567 47.7785C143.098 47.6176 143.689 47.5371 144.337 47.5371C145.399 47.5371 146.428 47.7423 147.426 48.1566L146.284 50.3651L146.288 50.353Z" fill="#575756"/>
<path d="M0.732142 67.1079C0.752256 67.1079 0.764324 67.0958 0.764324 67.0677V61.3312L0 61.3111C0 61.1542 0 60.9772 0.0120683 60.8203C0.378139 60.8203 0.808574 60.8324 1.21487 60.8324C1.51658 60.8324 3.27855 60.8203 3.54003 60.8203H4.44112C4.48135 61.3433 4.51353 61.8783 4.53365 62.4013C4.36469 62.4334 4.17965 62.4536 3.97851 62.4737L3.80955 61.5645C3.78944 61.4599 3.73714 61.3956 3.56819 61.3875C3.30671 61.3553 2.59468 61.3352 1.90276 61.3352H1.60106L1.58899 63.9098C2.17631 63.8977 2.66709 63.8977 3.2343 63.8897C3.42337 63.8776 3.46359 63.8173 3.47566 63.6805L3.52796 63.1776C3.70496 63.1776 3.9061 63.1776 4.06298 63.1897C4.05092 63.5035 4.05092 63.8494 4.04287 64.1833V65.1448C3.87392 65.1568 3.68887 65.1649 3.50784 65.1568L3.46762 64.6138C3.45555 64.469 3.39521 64.4167 3.21821 64.4167C2.74754 64.4046 2.21252 64.4046 1.59703 64.4046L1.58497 66.9188C1.58497 67.0958 1.60508 67.128 2.17229 67.128C3.02109 67.128 3.61646 67.0958 3.79346 67.0556C3.89805 67.0234 3.95035 66.9631 3.98253 66.8464L4.31642 65.893C4.50549 65.9252 4.7026 65.9654 4.85949 65.9976C4.74283 66.5407 4.61813 67.0958 4.49342 67.6429C4.01069 67.6308 2.651 67.6308 1.23901 67.6308H0C0 67.474 0 67.305 0.0120683 67.1481L0.736165 67.1159L0.732142 67.1079Z" fill="#575756"/>
<path d="M6.34379 66.8986C6.36391 66.9509 6.37597 66.9831 6.43632 67.0233C6.58113 67.1399 6.86675 67.2445 7.16041 67.2445C7.45407 67.2445 7.72762 67.2244 7.94485 67.0756C8.10174 66.9589 8.23851 66.7819 8.23851 66.4883C8.23851 65.9532 7.92474 65.8929 7.05582 65.6193C6.20702 65.3659 5.87313 65.032 5.87313 64.4487C5.87313 63.9459 6.19897 63.5798 6.53286 63.3907C6.84664 63.2137 7.265 63.1172 7.77992 63.1172C8.33506 63.1172 8.70113 63.2419 8.80572 63.3063C8.84595 63.6844 8.8902 64.0706 8.92238 64.4568C8.76549 64.4769 8.56838 64.5091 8.38735 64.5292L8.24253 63.8694C8.23047 63.8172 8.20231 63.7769 8.17012 63.7528C8.03335 63.6482 7.80405 63.5959 7.55062 63.5959C7.27707 63.5959 7.04777 63.6804 6.90296 63.793C6.75814 63.8976 6.64148 64.0666 6.64148 64.3361C6.64148 64.7544 6.83859 64.8389 7.67935 65.0883C8.4316 65.3096 9.01893 65.5389 9.01893 66.3434C9.01893 66.8061 8.78963 67.1922 8.34713 67.4537C8.06553 67.6307 7.59487 67.7152 7.07996 67.7152C6.51677 67.7152 6.05415 67.6106 5.82486 67.5181C5.77256 67.1118 5.72026 66.7135 5.66797 66.3032C5.84497 66.263 6.03404 66.2308 6.21104 66.2107L6.34781 66.8905L6.34379 66.8986Z" fill="#575756"/>
<path d="M11.2314 63.6965C12.2693 63.1614 12.4262 63.1212 12.8647 63.1212C13.9226 63.1212 14.5623 64.1993 14.5502 65.1205C14.5502 65.6234 14.4778 66.0096 14.3008 66.4078C14.1238 66.794 13.9226 67.1198 13.4721 67.4215C13.2428 67.5784 12.7802 67.7273 12.3095 67.7273C11.8389 67.7273 11.5331 67.6347 11.2435 67.4859L11.2033 67.506C11.2153 68.0933 11.2033 68.9301 11.2033 69.5053L12.1768 69.5254C12.1768 69.6703 12.1768 69.8312 12.1647 69.976C11.7664 69.976 11.2636 69.976 10.805 69.9881C10.459 69.9881 10.0729 69.9881 9.75909 70.0001C9.75909 69.8553 9.75909 69.6944 9.77116 69.5496L10.3786 69.5174C10.3987 69.5053 10.4188 69.4852 10.4188 69.453V63.8534L9.62231 63.8413C9.62231 63.7045 9.62231 63.5476 9.63438 63.4109C10.0326 63.3465 11.0061 63.1172 11.0705 63.1172C11.0906 63.1172 11.1027 63.1293 11.1027 63.1494C11.1349 63.3183 11.1671 63.5154 11.1872 63.6844L11.2395 63.6965H11.2314ZM13.6933 65.3699C13.6933 64.9918 13.641 64.6257 13.4721 64.2918C13.2951 63.966 12.9572 63.7488 12.5629 63.7488C12.1687 63.7488 11.682 63.9177 11.2354 64.2395C11.2354 65.036 11.2234 65.9452 11.2234 66.6894C11.2234 66.9187 11.7664 67.2244 12.2814 67.2244C12.5831 67.2244 12.9411 67.1198 13.1905 66.8584C13.5043 66.5446 13.6933 66.0739 13.6933 65.382V65.3699Z" fill="#575756"/>
<path d="M15.4395 65.6112C15.4395 64.2515 16.3204 63.1211 17.6681 63.1211C18.2111 63.1211 18.6295 63.3182 18.903 63.6561C19.2048 64.0423 19.3013 64.5572 19.3013 65.0279C19.249 65.1526 19.0519 65.3939 18.9473 65.406C18.3278 65.4261 16.948 65.4382 16.2883 65.4382C16.2762 66.0135 16.3928 66.4439 16.6342 66.7255C16.948 67.0916 17.2819 67.1559 17.7123 67.1559C18.195 67.1559 18.7381 66.9668 19.1042 66.822C19.1565 66.9668 19.1967 67.1479 19.2208 67.2927C18.6456 67.5743 18.006 67.7312 17.5554 67.7312C16.1957 67.7312 15.4395 66.8421 15.4395 65.6273V65.6152V65.6112ZM17.5434 63.6119C17.1894 63.6119 16.948 63.7366 16.767 63.9377C16.6302 64.0946 16.3607 64.4204 16.3285 64.9514C16.9239 64.9514 17.7727 64.9394 18.368 64.9193C18.4525 64.9193 18.5048 64.8871 18.5048 64.8026C18.5048 64.4486 18.3801 64.1107 18.2232 63.9216C18.0663 63.7325 17.8571 63.6078 17.5514 63.6078H17.5393L17.5434 63.6119Z" fill="#575756"/>
<path d="M20.1418 65.6837C20.1418 64.1872 21.1878 63.1172 22.6762 63.1172C23.1388 63.1172 23.4807 63.2338 23.6376 63.3384C23.6376 63.4833 23.4284 63.9016 23.3037 63.9861C23.1991 63.9459 22.7888 63.7246 22.3624 63.7246C21.936 63.7246 21.6826 63.8614 21.4613 64.1108C21.232 64.3723 20.9906 64.8309 20.9906 65.4826C20.9906 66.0779 21.1073 66.4561 21.3688 66.7699C21.6182 67.0756 21.9963 67.156 22.3101 67.156C22.7164 67.156 23.2635 66.9871 23.6095 66.8423C23.6497 66.979 23.6939 67.156 23.7261 67.3049C23.1589 67.5784 22.5113 67.7232 22.0607 67.7232C21.047 67.7232 20.1459 67.0112 20.1459 65.6918V65.6797L20.1418 65.6837Z" fill="#575756"/>
<path d="M24.225 63.8219V63.3834C24.6755 63.3191 25.7335 63.1219 25.818 63.1219C25.8381 63.1219 25.8381 63.134 25.8381 63.1541C25.8381 64.3046 25.818 66.0224 25.818 67.1326L26.5501 67.1648C26.5501 67.3217 26.5501 67.4705 26.5381 67.6154H25.3755C25.0215 67.6154 24.6313 67.6274 24.2853 67.6274V67.1648L24.9853 67.1326C25.0175 67.1326 25.0255 67.1125 25.0255 67.0924V63.846L24.2209 63.8259L24.225 63.8219ZM25.3875 61.006C25.7737 61.006 25.9105 61.3198 25.9105 61.549C25.9105 61.8749 25.6812 62.1122 25.3554 62.1122C25.0295 62.1122 24.7882 61.8628 24.7882 61.5571C24.7882 61.2514 24.9973 61.002 25.3755 61.002H25.3875V61.006Z" fill="#575756"/>
<path d="M29.8246 67.2566C29.0482 67.6549 28.6741 67.7273 28.296 67.7273C27.7811 67.7273 27.1133 67.2968 27.1133 66.7015C27.1133 66.1061 27.7529 65.2895 29.1528 65.2975H29.8648C29.9051 64.1792 29.6436 63.7367 28.9959 63.7367C28.5575 63.7367 28.0948 64.0505 27.7408 64.4367C27.6242 64.3119 27.4914 64.1631 27.3868 64.0384C27.8253 63.5879 28.4247 63.1172 29.2494 63.1172C30.0258 63.1172 30.6533 63.6522 30.6533 64.8148C30.6533 65.3176 30.6412 66.5727 30.6332 67.0112C30.6332 67.1158 30.6654 67.1681 30.7257 67.1681L31.4257 67.148V67.5865C31.2809 67.6267 30.6815 67.7232 30.2229 67.7232C30.1183 67.6307 30.0137 67.4618 29.8769 67.2526H29.8246V67.2566ZM27.9621 66.617C27.9621 66.9428 28.2557 67.1721 28.662 67.1721C28.9637 67.1721 29.4264 67.0354 29.8246 66.7538C29.8568 66.7336 29.8568 66.7135 29.8568 66.6612V65.7722C29.8045 65.7601 29.5833 65.7521 29.2695 65.7521C28.3483 65.7521 27.9621 66.1383 27.9621 66.6089V66.621V66.617Z" fill="#575756"/>
<path d="M31.6672 60.9732C31.6672 60.8283 31.6793 60.6715 31.6793 60.5226C32.1299 60.4824 33.22 60.2812 33.3005 60.2812C33.3206 60.2812 33.3327 60.2933 33.3327 60.3215C33.3206 62.2162 33.3005 65.0442 33.2924 67.128L34.1091 67.1481C34.1091 67.2929 34.1091 67.4619 34.097 67.6067H32.8821C32.504 67.6067 32.0977 67.6188 31.7517 67.6188C31.7517 67.4739 31.7517 67.305 31.7638 67.1561L32.4637 67.124C32.4839 67.124 32.4959 67.1038 32.4959 67.0837C32.508 65.2413 32.516 62.8236 32.508 60.9893L31.6713 60.9691L31.6672 60.9732Z" fill="#575756"/>
<path d="M34.5033 63.8219V63.3834C34.9538 63.3191 36.0118 63.1219 36.0963 63.1219C36.1164 63.1219 36.1164 63.134 36.1164 63.1541C36.1164 64.3046 36.0963 66.0224 36.0963 67.1326L36.8284 67.1648C36.8284 67.3217 36.8284 67.4705 36.8164 67.6154H35.6538C35.2998 67.6154 34.9096 67.6274 34.5636 67.6274V67.1648L35.2636 67.1326C35.2958 67.1326 35.3038 67.1125 35.3038 67.0924V63.846L34.4993 63.8259L34.5033 63.8219ZM35.6659 61.006C36.0521 61.006 36.1888 61.3198 36.1888 61.549C36.1888 61.8749 35.9595 62.1122 35.6337 62.1122C35.3078 62.1122 35.0665 61.8628 35.0665 61.5571C35.0665 61.2514 35.2757 61.002 35.6538 61.002H35.6659V61.006Z" fill="#575756"/>
<path d="M38.0835 66.8986C38.1037 66.9509 38.1157 66.9831 38.1761 67.0233C38.3209 67.1399 38.6065 67.2445 38.9002 67.2445C39.1938 67.2445 39.4674 67.2244 39.6846 67.0756C39.8415 66.9589 39.9783 66.7819 39.9783 66.4883C39.9783 65.9532 39.6645 65.8929 38.7956 65.6193C37.9468 65.3659 37.6129 65.032 37.6129 64.4487C37.6129 63.9459 37.9387 63.5798 38.2726 63.3907C38.5864 63.2137 39.0047 63.1172 39.5197 63.1172C40.0748 63.1172 40.4409 63.2419 40.5455 63.3063C40.5857 63.6844 40.6299 64.0706 40.6621 64.4568C40.5052 64.4769 40.3081 64.5091 40.1271 64.5292L39.9823 63.8694C39.9702 63.8172 39.9421 63.7769 39.9099 63.7528C39.7731 63.6482 39.5438 63.5959 39.2904 63.5959C39.0168 63.5959 38.7875 63.6804 38.6427 63.793C38.4979 63.8976 38.3812 64.0666 38.3812 64.3361C38.3812 64.7544 38.5783 64.8389 39.4191 65.0883C40.1713 65.3096 40.7587 65.5389 40.7587 66.3434C40.7587 66.8061 40.5294 67.1922 40.0869 67.4537C39.8053 67.6307 39.3346 67.7152 38.8197 67.7152C38.2565 67.7152 37.7939 67.6106 37.5646 67.5181C37.5123 67.1118 37.46 66.7135 37.4077 66.3032C37.5847 66.263 37.7738 66.2308 37.9508 66.2107L38.0876 66.8905L38.0835 66.8986Z" fill="#575756"/>
<path d="M43.3291 67.7143C43.1078 67.7143 42.8142 67.6942 42.5245 67.4408C42.251 67.1914 42.2429 66.95 42.2429 66.6242C42.2429 66.0891 42.255 65.2645 42.255 65.003C42.255 64.6892 42.2671 64.0617 42.2671 63.8002H41.543C41.543 63.6312 41.555 63.4462 41.5631 63.2853C41.7843 63.2853 42.0136 63.2732 42.2349 63.2652C42.255 63.2652 42.2992 63.233 42.2992 63.1927C42.3113 62.8991 42.3194 62.5209 42.3314 62.2192C42.605 62.0422 43.0435 61.8652 43.0756 61.8652C43.0958 61.8652 43.1078 61.8773 43.1078 61.8974C43.0958 62.2514 43.0877 62.8186 43.0877 63.2571C43.6227 63.2571 44.198 63.2571 44.733 63.245C44.733 63.4341 44.7129 63.6232 44.7008 63.7881H43.0676V64.9587C43.0555 65.3892 43.0555 65.9966 43.0555 66.5075C43.0555 66.946 43.3693 67.1471 43.7354 67.1471C43.9767 67.1471 44.375 67.0828 44.7411 66.9902C44.7732 67.127 44.7934 67.296 44.8135 67.4528C44.3227 67.6298 43.7233 67.7143 43.3492 67.7143H43.3371H43.3291Z" fill="#575756"/>
<path d="M47.9836 67.2566C47.2072 67.6549 46.833 67.7273 46.4549 67.7273C45.94 67.7273 45.2722 67.2968 45.2722 66.7015C45.2722 66.1061 45.9118 65.2895 47.3118 65.2975H48.0238C48.064 64.1792 47.8025 63.7367 47.1549 63.7367C46.7164 63.7367 46.2538 64.0505 45.8998 64.4367C45.7831 64.3119 45.6504 64.1631 45.5458 64.0384C45.9842 63.5879 46.5836 63.1172 47.4083 63.1172C48.1847 63.1172 48.8122 63.6522 48.8122 64.8148C48.8122 65.3176 48.8002 66.5727 48.7921 67.0112C48.7921 67.1158 48.8243 67.1681 48.8847 67.1681L49.5846 67.148V67.5865C49.4398 67.6267 48.8404 67.7232 48.3818 67.7232C48.2772 67.6307 48.1726 67.4618 48.0359 67.2526H47.9836V67.2566ZM46.121 66.617C46.121 66.9428 46.4147 67.1721 46.821 67.1721C47.1227 67.1721 47.5853 67.0354 47.9836 66.7538C48.0157 66.7336 48.0157 66.7135 48.0157 66.6612V65.7722C47.9634 65.7601 47.7422 65.7521 47.4284 65.7521C46.5072 65.7521 46.121 66.1383 46.121 66.6089V66.621V66.617Z" fill="#575756"/>
<path d="M50.7913 66.8986C50.8114 66.9509 50.8235 66.9831 50.8838 67.0233C51.0286 67.1399 51.3143 67.2445 51.6079 67.2445C51.9016 67.2445 52.1751 67.2244 52.3924 67.0756C52.5492 66.9589 52.686 66.7819 52.686 66.4883C52.686 65.9532 52.3722 65.8929 51.5033 65.6193C50.6545 65.3659 50.3206 65.032 50.3206 64.4487C50.3206 63.9459 50.6465 63.5798 50.9804 63.3907C51.2941 63.2137 51.7125 63.1172 52.2274 63.1172C52.7826 63.1172 53.1486 63.2419 53.2532 63.3063C53.2935 63.6844 53.3377 64.0706 53.3699 64.4568C53.213 64.4769 53.0159 64.5091 52.8349 64.5292L52.69 63.8694C52.678 63.8172 52.6498 63.7769 52.6176 63.7528C52.4809 63.6482 52.2516 63.5959 51.9981 63.5959C51.7246 63.5959 51.4953 63.6804 51.3505 63.793C51.2056 63.8976 51.089 64.0666 51.089 64.3361C51.089 64.7544 51.2861 64.8389 52.1269 65.0883C52.8791 65.3096 53.4664 65.5389 53.4664 66.3434C53.4664 66.8061 53.2371 67.1922 52.7946 67.4537C52.513 67.6307 52.0424 67.7152 51.5275 67.7152C50.9643 67.7152 50.5017 67.6106 50.2724 67.5181C50.2201 67.1118 50.1678 66.7135 50.1155 66.3032C50.2925 66.263 50.4815 66.2308 50.6586 66.2107L50.7953 66.8905L50.7913 66.8986Z" fill="#575756"/>
<path d="M56.6526 65.6112C56.6526 64.2515 57.5336 63.1211 58.8812 63.1211C59.4243 63.1211 59.8426 63.3182 60.1162 63.6561C60.4179 64.0423 60.5144 64.5572 60.5144 65.0279C60.4621 65.1526 60.265 65.3939 60.1604 65.406C59.5409 65.4261 58.1611 65.4382 57.5014 65.4382C57.4893 66.0135 57.606 66.4439 57.8473 66.7255C58.1611 67.0916 58.495 67.1559 58.9254 67.1559C59.4082 67.1559 59.9512 66.9668 60.3173 66.822C60.3696 66.9668 60.4098 67.1479 60.434 67.2927C59.8587 67.5743 59.2191 67.7312 58.7686 67.7312C57.4089 67.7312 56.6526 66.8421 56.6526 65.6273V65.6152V65.6112ZM58.7565 63.6119C58.4025 63.6119 58.1611 63.7366 57.9801 63.9377C57.8433 64.0946 57.5738 64.4204 57.5416 64.9514C58.137 64.9514 58.9858 64.9394 59.5812 64.9193C59.6656 64.9193 59.7179 64.8871 59.7179 64.8026C59.7179 64.4486 59.5932 64.1107 59.4363 63.9216C59.2794 63.7325 59.0703 63.6078 58.7645 63.6078H58.7525L58.7565 63.6119Z" fill="#575756"/>
<path d="M61.1418 63.8332C61.1418 63.6965 61.1539 63.5396 61.1539 63.4028C61.5723 63.3304 62.5257 63.1293 62.5981 63.1293C62.6182 63.1293 62.6182 63.1413 62.6182 63.1494C62.6504 63.3586 62.7027 63.6321 62.7349 63.7769L62.7872 63.789C63.825 63.1494 64.0543 63.1172 64.5049 63.1172C65.0479 63.1172 65.4261 63.4953 65.6151 63.8171C65.772 64.0786 65.8243 64.3522 65.8243 64.5935C65.8243 65.3579 65.8042 66.3434 65.7922 67.1279L66.464 67.1601C66.464 67.2968 66.464 67.4658 66.4519 67.6106H65.3537C65.0278 67.6106 64.6416 67.6227 64.348 67.6227C64.348 67.4859 64.348 67.321 64.3601 67.1721L64.9675 67.1399C64.9876 67.1279 64.9997 67.1198 64.9997 67.0997C65.0117 66.5325 65.0117 65.7803 65.0117 65.205C65.0117 64.7866 65.0117 64.3763 64.875 64.147C64.6778 63.793 64.4123 63.7488 64.1629 63.7488C63.7767 63.7488 63.1894 64.0304 62.7711 64.3562C62.759 65.1527 62.7509 66.3676 62.7509 67.1319L63.5032 67.1641C63.5032 67.3089 63.4911 67.4779 63.4911 67.6146H62.3084C61.9746 67.6146 61.6085 67.6267 61.2947 67.6267C61.2947 67.4819 61.2947 67.3129 61.3068 67.1641L61.9263 67.1319C61.9464 67.1319 61.9665 67.1118 61.9665 67.0917L61.9544 63.8574L61.1499 63.8373L61.1418 63.8332Z" fill="#575756"/>
<path d="M70.2494 66.8254C70.2615 66.8898 70.2816 66.9179 70.3339 66.9501C70.531 67.0869 70.9413 67.1915 71.3074 67.1915C71.7982 67.1915 72.2608 67.0346 72.5021 66.7731C72.7435 66.5318 72.836 66.2823 72.836 65.9364C72.836 65.0353 72.3453 64.8784 71.3275 64.4077C70.4063 63.9894 69.7466 63.5066 69.7466 62.5975C69.7466 62.0222 70.0483 61.4993 70.4264 61.2056C70.8126 60.8918 71.42 60.7148 72.132 60.7148C72.6148 60.7148 73.1579 60.8074 73.4073 60.9441C73.4596 61.447 73.4998 61.982 73.5239 62.4929C73.3469 62.513 73.1458 62.5452 72.9487 62.5653L72.7717 61.5797C72.7516 61.5154 72.7314 61.4751 72.7073 61.455C72.5303 61.3102 72.2447 61.2459 71.9229 61.2459C71.5568 61.2459 71.1907 61.3424 70.9373 61.5596C70.716 61.7487 70.539 62.0424 70.539 62.4285C70.539 63.1526 70.885 63.3296 71.9752 63.8083C73.0211 64.271 73.6285 64.7296 73.6285 65.683C73.6285 66.2703 73.4193 66.7812 73.0211 67.1392C72.5906 67.5254 71.9953 67.7265 71.1384 67.7265C70.6235 67.7265 69.9557 67.6219 69.5977 67.4731C69.5575 66.93 69.5052 66.3548 69.4609 65.8197C69.6581 65.7875 69.8672 65.7473 70.0563 65.7352L70.2454 66.8254H70.2494Z" fill="#575756"/>
<path d="M77.2531 67.2566C76.4767 67.6549 76.1026 67.7273 75.7244 67.7273C75.2095 67.7273 74.5417 67.2968 74.5417 66.7015C74.5417 66.1061 75.1814 65.2895 76.5813 65.2975H77.2933C77.3335 64.1792 77.0721 63.7367 76.4244 63.7367C75.9859 63.7367 75.5233 64.0505 75.1693 64.4367C75.0526 64.3119 74.9199 64.1631 74.8153 64.0384C75.2538 63.5879 75.8532 63.1172 76.6778 63.1172C77.4542 63.1172 78.0818 63.6522 78.0818 64.8148C78.0818 65.3176 78.0697 66.5727 78.0617 67.0112C78.0617 67.1158 78.0938 67.1681 78.1542 67.1681L78.8541 67.148V67.5865C78.7093 67.6267 78.1099 67.7232 77.6513 67.7232C77.5467 67.6307 77.4422 67.4618 77.3054 67.2526H77.2531V67.2566ZM75.3906 66.617C75.3906 66.9428 75.6842 67.1721 76.0905 67.1721C76.3922 67.1721 76.8548 67.0354 77.2531 66.7538C77.2853 66.7336 77.2853 66.7135 77.2853 66.6612V65.7722C77.233 65.7601 77.0117 65.7521 76.6979 65.7521C75.7767 65.7521 75.3906 66.1383 75.3906 66.6089V66.621V66.617Z" fill="#575756"/>
<path d="M79.0955 60.9732C79.0955 60.8283 79.1075 60.6715 79.1075 60.5226C79.5581 60.4824 80.6482 60.2812 80.7287 60.2812C80.7488 60.2812 80.7609 60.2933 80.7609 60.3215C80.7488 62.2162 80.7287 65.0442 80.7207 67.128L81.5373 67.1481C81.5373 67.2929 81.5373 67.4619 81.5252 67.6067H80.3103C79.9322 67.6067 79.5259 67.6188 79.1799 67.6188C79.1799 67.4739 79.1799 67.305 79.192 67.1561L79.892 67.124C79.9121 67.124 79.9241 67.1038 79.9241 67.0837C79.9362 65.2413 79.9443 62.8236 79.9362 60.9893L79.0995 60.9691L79.0955 60.9732Z" fill="#575756"/>
<path d="M85.4514 67.159C84.5302 67.7021 84.3089 67.7262 83.8906 67.7262C83.1906 67.7262 82.5389 67.0021 82.5389 66.2901C82.5389 65.389 82.551 64.512 82.551 63.7557L81.9114 63.7437C81.9114 63.5868 81.9234 63.4178 81.9315 63.2609C82.2976 63.2489 83.2188 63.2207 83.3435 63.2207C83.3636 63.2207 83.3757 63.2328 83.3757 63.2529C83.3555 64.0494 83.3435 64.8861 83.3435 65.755C83.3435 66.1935 83.3314 66.4872 83.5004 66.7607C83.6774 67.0423 83.9308 67.1389 84.2245 67.1389C84.5905 67.1389 85.021 66.9418 85.4595 66.6159C85.4715 65.747 85.4595 64.5442 85.4595 63.7598L84.7877 63.7396C84.7877 63.5827 84.7877 63.4057 84.7997 63.2489C85.1859 63.2489 86.1192 63.2287 86.256 63.2287C86.268 63.2287 86.2761 63.2408 86.2761 63.2609C86.2761 64.4436 86.256 65.7752 86.256 66.9981C86.256 67.1027 86.2761 67.1429 86.3284 67.1429L87.0283 67.1308C87.0283 67.2676 87.0283 67.4325 87.0163 67.5693C86.8916 67.6095 86.3042 67.7262 85.8336 67.7262C85.729 67.6216 85.6123 67.4325 85.4997 67.171L85.4474 67.159H85.4514Z" fill="#575756"/>
<path d="M90.9343 67.2567C90.0654 67.6952 89.8442 67.7274 89.4781 67.7274C88.9873 67.7274 88.5247 67.5383 88.2029 67.2125C87.8046 66.8263 87.5955 66.3033 87.5955 65.6194C87.5955 64.9356 87.8569 64.2799 88.2954 63.7891C88.6534 63.3828 89.1844 63.1173 89.8562 63.1173C90.2344 63.1173 90.5884 63.2098 90.8941 63.3265L90.9343 63.2943C90.9223 62.4897 90.9223 61.7858 90.9142 61.0134L90.0453 60.9933C90.0453 60.8485 90.0453 60.6916 90.0574 60.5427C90.5803 60.4784 91.6182 60.2812 91.7107 60.2812C91.7309 60.2812 91.7429 60.2933 91.7429 60.3215C91.7429 62.184 91.7107 64.8873 91.7107 66.9148C91.7107 67.0515 91.7309 67.136 91.8274 67.136L92.5394 67.1038V67.5423C92.3705 67.6067 91.7349 67.7193 91.3165 67.7193C91.2119 67.6348 91.1073 67.49 91.0027 67.2487H90.9384L90.9343 67.2567ZM90.9142 66.609C90.9142 65.6878 90.9142 64.7344 90.9022 63.9379C90.6005 63.769 90.2545 63.6644 89.8764 63.6644C89.458 63.6644 89.0799 63.8333 88.8385 64.1672C88.5891 64.5011 88.4603 64.9316 88.4603 65.5269C88.4603 66.0499 88.5529 66.416 88.7942 66.7418C89.0155 67.0435 89.3494 67.1722 89.6833 67.1722C90.1218 67.1722 90.4999 67.0033 90.8458 66.7659C90.8981 66.7338 90.9102 66.6935 90.9102 66.6211V66.609H90.9142Z" fill="#575756"/>
<path d="M98.5576 67.7266C97.6485 67.7266 96.9123 67.3807 96.3893 66.8456C95.802 66.2583 95.4561 65.3894 95.4561 64.2831C95.4561 62.9315 96.1158 61.8534 96.9123 61.2983C97.5318 60.8799 98.1674 60.7109 98.8915 60.7109C99.5311 60.7109 100.126 60.8678 100.649 61.2339C101.402 61.7689 101.925 62.8028 101.925 64.0096C101.925 65.0998 101.571 66.1537 100.834 66.8778C100.279 67.4129 99.5995 67.7266 98.5616 67.7266H98.5496H98.5576ZM98.7145 67.2037C99.334 67.2037 99.8972 66.9824 100.275 66.556C100.674 66.0853 101.028 65.3934 101.028 64.2309C101.028 63.2694 100.786 62.4407 100.283 61.8735C99.8771 61.435 99.3943 61.2339 98.7668 61.2339C98.1915 61.2339 97.6766 61.423 97.2784 61.777C96.7956 62.2155 96.3572 63.0321 96.3572 64.2067C96.3572 65.2446 96.5784 65.9647 97.1335 66.552C97.5519 67.0025 98.1071 67.1996 98.7024 67.1996H98.7145V67.2037Z" fill="#575756"/>
<path d="M102.773 65.6837C102.773 64.1872 103.819 63.1172 105.308 63.1172C105.77 63.1172 106.112 63.2338 106.269 63.3384C106.269 63.4833 106.06 63.9016 105.935 63.9861C105.831 63.9459 105.42 63.7246 104.994 63.7246C104.568 63.7246 104.314 63.8614 104.093 64.1108C103.864 64.3723 103.622 64.8309 103.622 65.4826C103.622 66.0779 103.739 66.4561 104 66.7699C104.25 67.0756 104.628 67.156 104.942 67.156C105.348 67.156 105.895 66.9871 106.241 66.8423C106.281 66.979 106.326 67.156 106.358 67.3049C105.791 67.5784 105.143 67.7232 104.692 67.7232C103.679 67.7232 102.777 67.0112 102.777 65.6918V65.6797L102.773 65.6837Z" fill="#575756"/>
<path d="M110.376 67.159C109.455 67.7021 109.234 67.7262 108.816 67.7262C108.116 67.7262 107.464 67.0021 107.464 66.2901C107.464 65.389 107.476 64.512 107.476 63.7557L106.836 63.7437C106.836 63.5868 106.849 63.4178 106.857 63.2609C107.223 63.2489 108.144 63.2207 108.269 63.2207C108.289 63.2207 108.301 63.2328 108.301 63.2529C108.281 64.0494 108.269 64.8861 108.269 65.755C108.269 66.1935 108.256 66.4872 108.425 66.7607C108.602 67.0423 108.856 67.1389 109.15 67.1389C109.516 67.1389 109.946 66.9418 110.385 66.6159C110.397 65.747 110.385 64.5442 110.385 63.7598L109.713 63.7396C109.713 63.5827 109.713 63.4057 109.725 63.2489C110.111 63.2489 111.044 63.2287 111.181 63.2287C111.193 63.2287 111.201 63.2408 111.201 63.2609C111.201 64.4436 111.181 65.7752 111.181 66.9981C111.181 67.1027 111.201 67.1429 111.253 67.1429L111.953 67.1308C111.953 67.2676 111.953 67.4325 111.941 67.5693C111.817 67.6095 111.229 67.7262 110.759 67.7262C110.654 67.6216 110.537 67.4325 110.425 67.171L110.372 67.159H110.376Z" fill="#575756"/>
<path d="M113.852 63.6965C114.89 63.1614 115.047 63.1212 115.485 63.1212C116.543 63.1212 117.183 64.1993 117.171 65.1205C117.171 65.6234 117.098 66.0096 116.921 66.4078C116.744 66.794 116.543 67.1198 116.093 67.4215C115.863 67.5784 115.401 67.7273 114.93 67.7273C114.459 67.7273 114.154 67.6347 113.864 67.4859L113.824 67.506C113.836 68.0933 113.824 68.9301 113.824 69.5053L114.797 69.5254C114.797 69.6703 114.797 69.8312 114.785 69.976C114.387 69.976 113.884 69.976 113.426 69.9881C113.08 69.9881 112.693 69.9881 112.38 70.0001C112.38 69.8553 112.38 69.6944 112.392 69.5496L112.999 69.5174C113.019 69.5053 113.039 69.4852 113.039 69.453V63.8534L112.243 63.8413C112.243 63.7045 112.243 63.5476 112.255 63.4109C112.653 63.3465 113.627 63.1172 113.691 63.1172C113.711 63.1172 113.723 63.1293 113.723 63.1494C113.755 63.3183 113.788 63.5154 113.808 63.6844L113.86 63.6965H113.852ZM116.314 65.3699C116.314 64.9918 116.262 64.6257 116.093 64.2918C115.916 63.966 115.578 63.7488 115.184 63.7488C114.789 63.7488 114.303 63.9177 113.856 64.2395C113.856 65.036 113.844 65.9452 113.844 66.6894C113.844 66.9187 114.387 67.2244 114.902 67.2244C115.204 67.2244 115.562 67.1198 115.811 66.8584C116.125 66.5446 116.314 66.0739 116.314 65.382V65.3699Z" fill="#575756"/>
<path d="M120.602 67.2566C119.826 67.6549 119.452 67.7273 119.074 67.7273C118.559 67.7273 117.891 67.2968 117.891 66.7015C117.891 66.1061 118.53 65.2895 119.93 65.2975H120.642C120.683 64.1792 120.421 63.7367 119.774 63.7367C119.335 63.7367 118.872 64.0505 118.518 64.4367C118.402 64.3119 118.269 64.1631 118.164 64.0384C118.603 63.5879 119.202 63.1172 120.027 63.1172C120.803 63.1172 121.431 63.6522 121.431 64.8148C121.431 65.3176 121.419 66.5727 121.411 67.0112C121.411 67.1158 121.443 67.1681 121.503 67.1681L122.203 67.148V67.5865C122.058 67.6267 121.459 67.7232 121 67.7232C120.896 67.6307 120.791 67.4618 120.655 67.2526H120.602V67.2566ZM118.74 66.617C118.74 66.9428 119.033 67.1721 119.44 67.1721C119.741 67.1721 120.204 67.0354 120.602 66.7538C120.634 66.7336 120.634 66.7135 120.634 66.6612V65.7722C120.582 65.7601 120.361 65.7521 120.047 65.7521C119.126 65.7521 118.74 66.1383 118.74 66.6089V66.621V66.617Z" fill="#575756"/>
<path d="M122.718 65.6837C122.718 64.1872 123.764 63.1172 125.253 63.1172C125.715 63.1172 126.057 63.2338 126.214 63.3384C126.214 63.4833 126.005 63.9016 125.88 63.9861C125.776 63.9459 125.365 63.7246 124.939 63.7246C124.512 63.7246 124.259 63.8614 124.038 64.1108C123.808 64.3723 123.567 64.8309 123.567 65.4826C123.567 66.0779 123.684 66.4561 123.945 66.7699C124.195 67.0756 124.573 67.156 124.887 67.156C125.293 67.156 125.84 66.9871 126.186 66.8423C126.226 66.979 126.27 67.156 126.303 67.3049C125.735 67.5784 125.088 67.7232 124.637 67.7232C123.623 67.7232 122.722 67.0112 122.722 65.6918V65.6797L122.718 65.6837Z" fill="#575756"/>
<path d="M126.801 63.8219V63.3834C127.252 63.3191 128.31 63.1219 128.394 63.1219C128.415 63.1219 128.415 63.134 128.415 63.1541C128.415 64.3046 128.394 66.0224 128.394 67.1326L129.127 67.1648C129.127 67.3217 129.127 67.4705 129.114 67.6154H127.952C127.598 67.6154 127.208 67.6274 126.862 67.6274V67.1648L127.562 67.1326C127.594 67.1326 127.602 67.1125 127.602 67.0924V63.846L126.797 63.8259L126.801 63.8219ZM127.964 61.006C128.35 61.006 128.487 61.3198 128.487 61.549C128.487 61.8749 128.258 62.1122 127.932 62.1122C127.606 62.1122 127.365 61.8628 127.365 61.5571C127.365 61.2514 127.574 61.002 127.952 61.002H127.964V61.006Z" fill="#575756"/>
<path d="M131.866 67.727C131.279 67.727 130.776 67.55 130.43 67.2363C129.979 66.8179 129.738 66.2507 129.738 65.5105C129.738 64.7703 130.012 64.0864 130.619 63.5957C131.017 63.2698 131.552 63.125 132.055 63.125C132.558 63.125 132.976 63.2296 133.354 63.5112C133.877 63.9094 134.171 64.4968 134.171 65.3214C134.171 66.1461 133.817 66.8621 133.27 67.2886C132.872 67.6023 132.433 67.727 131.878 67.727H131.866ZM131.951 67.2644C132.264 67.2644 132.578 67.1719 132.819 66.9185C133.165 66.5403 133.29 66.0697 133.29 65.3576C133.29 64.7824 133.153 64.2876 132.872 63.9658C132.61 63.6842 132.337 63.5796 131.983 63.5796C131.689 63.5796 131.343 63.6842 131.102 63.9336C130.768 64.2795 130.619 64.7904 130.619 65.43C130.619 66.1099 130.764 66.5725 131.11 66.9185C131.307 67.1397 131.601 67.2644 131.938 67.2644H131.951Z" fill="#575756"/>
<path d="M134.839 63.8332C134.839 63.6965 134.851 63.5396 134.851 63.4028C135.269 63.3304 136.223 63.1293 136.295 63.1293C136.315 63.1293 136.315 63.1413 136.315 63.1494C136.347 63.3586 136.4 63.6321 136.432 63.7769L136.484 63.789C137.522 63.1494 137.751 63.1172 138.202 63.1172C138.745 63.1172 139.123 63.4953 139.312 63.8171C139.469 64.0786 139.521 64.3522 139.521 64.5935C139.521 65.3579 139.501 66.3434 139.489 67.1279L140.161 67.1601C140.161 67.2968 140.161 67.4658 140.149 67.6106H139.051C138.725 67.6106 138.339 67.6227 138.045 67.6227C138.045 67.4859 138.045 67.321 138.057 67.1721L138.665 67.1399C138.685 67.1279 138.697 67.1198 138.697 67.0997C138.709 66.5325 138.709 65.7803 138.709 65.205C138.709 64.7866 138.709 64.3763 138.572 64.147C138.375 63.793 138.113 63.7488 137.86 63.7488C137.474 63.7488 136.886 64.0304 136.468 64.3562C136.456 65.1527 136.448 66.3676 136.448 67.1319L137.2 67.1641C137.2 67.3089 137.188 67.4779 137.188 67.6146H136.005C135.672 67.6146 135.306 67.6267 134.992 67.6267C134.992 67.4819 134.992 67.3129 135.004 67.1641L135.623 67.1319C135.643 67.1319 135.664 67.1118 135.664 67.0917L135.651 63.8574L134.847 63.8373L134.839 63.8332Z" fill="#575756"/>
<path d="M143.455 67.2566C142.679 67.6549 142.305 67.7273 141.927 67.7273C141.412 67.7273 140.744 67.2968 140.744 66.7015C140.744 66.1061 141.384 65.2895 142.784 65.2975H143.496C143.536 64.1792 143.274 63.7367 142.627 63.7367C142.188 63.7367 141.726 64.0505 141.372 64.4367C141.255 64.3119 141.122 64.1631 141.018 64.0384C141.456 63.5879 142.056 63.1172 142.88 63.1172C143.657 63.1172 144.284 63.6522 144.284 64.8148C144.284 65.3176 144.272 66.5727 144.264 67.0112C144.264 67.1158 144.296 67.1681 144.357 67.1681L145.057 67.148V67.5865C144.912 67.6267 144.312 67.7232 143.854 67.7232C143.749 67.6307 143.645 67.4618 143.508 67.2526H143.455V67.2566ZM141.593 66.617C141.593 66.9428 141.887 67.1721 142.293 67.1721C142.595 67.1721 143.057 67.0354 143.455 66.7538C143.488 66.7336 143.488 66.7135 143.488 66.6612V65.7722C143.435 65.7601 143.214 65.7521 142.9 65.7521C141.979 65.7521 141.593 66.1383 141.593 66.6089V66.621V66.617Z" fill="#575756"/>
<path d="M145.298 60.9732C145.298 60.8283 145.31 60.6715 145.31 60.5226C145.76 60.4824 146.851 60.2812 146.931 60.2812C146.951 60.2812 146.963 60.2933 146.963 60.3215C146.951 62.2162 146.931 65.0442 146.923 67.128L147.74 67.1481C147.74 67.2929 147.74 67.4619 147.728 67.6067H146.513C146.135 67.6067 145.728 67.6188 145.382 67.6188C145.382 67.4739 145.382 67.305 145.394 67.1561L146.094 67.124C146.114 67.124 146.127 67.1038 146.127 67.0837C146.139 65.2413 146.147 62.8236 146.139 60.9893L145.302 60.9691L145.298 60.9732Z" fill="#575756"/>
<path d="M0.0441895 55.8873L1.99523 53.1961C3.16585 54.1616 4.52554 54.8213 5.92144 54.8213C6.8869 54.8213 7.40181 54.411 7.40181 53.7714V53.7311C7.40181 53.1358 6.99149 52.826 5.28584 52.2307C2.57048 51.3054 0.679785 50.34 0.679785 47.7091V47.6487C0.679785 45.038 2.67507 43.1875 5.79673 43.1875C7.74777 43.1875 9.45744 43.7225 10.9378 44.9535L9.06723 47.7091C8.08166 46.9488 6.8869 46.3936 5.71628 46.3936C4.87552 46.3936 4.40084 46.7838 4.40084 47.339V47.3591C4.40084 48.0188 4.87552 48.2843 6.68174 49.0044C9.41721 49.8894 11.1229 50.9997 11.1229 53.4455V53.4858C11.1229 56.2816 8.98678 58.0275 5.88121 58.0275C3.74513 58.0275 1.70961 57.3677 0.0441895 55.8873Z" fill="#575756"/>
<path d="M12.2371 43.4102H16.0587L18.9591 48.7121L21.8595 43.4102H25.6811V57.7996H22.0445V49.7017L18.9591 55.048H18.8987L15.8575 49.7219V57.7996H12.2411V43.4102H12.2371Z" fill="#575756"/>
<path d="M26.9565 50.7664V50.4566C26.9565 46.1402 29.7524 43.1191 33.6182 43.1191C37.4841 43.1191 40.2799 46.1201 40.2799 50.4164V50.7262C40.2799 55.0426 37.4841 58.0838 33.5981 58.0838C29.7121 58.0838 26.9565 55.1029 26.9565 50.7664ZM36.4945 50.7262V50.5009C36.4945 48.0148 35.3239 46.4942 33.5941 46.4942C31.8643 46.4942 30.7178 47.9947 30.7178 50.4808V50.7061C30.7178 53.1921 31.8884 54.7127 33.6182 54.7127C35.348 54.7127 36.4945 53.2122 36.4945 50.7262Z" fill="#575756"/>
<path d="M112.903 33.3118C112.826 31.6665 112.436 30.0534 111.35 28.7701C110.823 28.1466 110.087 27.6236 109.338 27.2857C106.989 26.2237 104.58 25.2904 102.21 24.2727C100.75 23.6451 101.631 21.0142 102.146 20.1976C102.625 19.4413 102.745 18.4598 103.071 17.5949C103.164 17.3495 103.437 17.1725 103.626 16.9673C103.803 16.7743 104.065 16.6133 104.137 16.3881C104.37 15.676 104.547 14.9439 104.716 14.2118C104.821 13.7491 104.913 13.3026 104.431 12.9164C104.27 12.7877 104.306 12.3693 104.318 12.0877C104.326 11.8424 104.342 11.597 104.358 11.3516C104.543 11.2872 104.732 11.2269 104.913 11.1585C104.926 10.9815 104.942 10.8085 104.942 10.6275C104.942 9.67408 104.765 8.76092 104.451 7.91614C104.302 6.8662 103.727 6.02544 102.886 5.36571C102.11 4.52496 101.152 3.85718 100.07 3.42272C99.7885 2.91183 99.3781 2.59001 98.9196 2.59001C98.6701 2.59001 98.4368 2.68655 98.2276 2.85551C97.9541 2.43714 97.584 2.17969 97.1737 2.17969C96.7352 2.17969 96.341 2.47737 96.0634 2.94803C96.0393 2.94803 96.0151 2.95608 95.995 2.9601C95.7617 2.72678 95.4841 2.59001 95.1864 2.59001C94.6876 2.59001 94.2491 2.97217 93.9675 3.55949C91.2803 4.78241 89.4098 7.48168 89.4098 10.6275C89.4098 10.8045 89.4259 10.9815 89.4379 11.1585C89.7074 11.2591 89.989 11.3556 90.2787 11.4481C90.2907 11.6613 90.3028 11.8745 90.3149 12.0877C90.3269 12.3693 90.3591 12.7877 90.2022 12.9164C89.7195 13.3026 89.808 13.7532 89.9166 14.2118C90.0856 14.9439 90.2626 15.676 90.4959 16.3881C90.5683 16.6133 90.8338 16.7743 91.0068 16.9673C91.1959 17.1765 91.4694 17.3495 91.5619 17.5949C91.8918 18.4598 92.0286 19.4252 92.4872 20.1976C93.163 21.332 93.8549 23.6652 92.4228 24.2727C90.6246 25.041 88.8023 25.7651 87.0042 26.5375C88.9431 27.3943 90.8781 28.2552 92.7889 29.1845C93.698 29.627 94.5951 30.3108 95.2387 31.1194C96.5622 32.7929 97.0369 34.8968 97.1294 37.0409C97.1455 37.4472 97.1536 37.8535 97.1616 38.2598H112.919C112.919 36.5904 112.979 34.945 112.903 33.3118Z" fill="#289A7B"/>
<path d="M61.7372 24.3003C60.108 23.5923 61.1539 21.0258 61.6728 20.2052C62.1556 19.4449 62.2722 18.4593 62.6021 17.5904C62.6946 17.345 62.9681 17.168 63.1612 16.9588C63.3382 16.7657 63.6037 16.6048 63.6761 16.3795C63.9095 15.6635 64.0905 14.9273 64.2595 14.1952C64.364 13.7325 64.4566 13.282 63.9698 12.8918C63.8089 12.7631 63.8451 12.3447 63.8532 12.0591C63.9014 10.8281 64.0422 9.60117 64.0221 8.3702C63.998 6.94212 63.2497 5.86402 62.0952 5.08361C62.1234 5.02327 62.1395 4.96293 62.1354 4.90259C62.0992 4.3394 60.6953 3.93712 58.7121 3.84862C58.0161 3.81644 57.2518 3.82046 56.4473 3.87276C54.9146 3.96931 53.5147 4.14228 52.5452 4.52042C52.2073 4.65317 51.8895 4.85029 51.5717 5.0635C51.3464 5.21636 51.1372 5.38129 50.9441 5.55829C50.1356 6.28641 49.6327 7.21567 49.6126 8.37423C49.5925 9.60117 49.7333 10.8321 49.7815 12.0631C49.7936 12.3487 49.8258 12.7671 49.6649 12.8958C49.1781 13.282 49.2707 13.7366 49.3752 14.1992C49.5442 14.9353 49.7252 15.6675 49.9586 16.3835C50.031 16.6088 50.2965 16.7737 50.4735 16.9628C50.6666 17.172 50.9361 17.349 51.0326 17.5944C51.3625 18.4633 51.4832 19.4449 51.9619 20.2092C52.4808 21.0298 53.4583 23.6004 51.8975 24.3043C49.5362 25.3664 47.0984 26.2594 44.741 27.3295C43.9928 27.6674 43.2486 28.1944 42.7216 28.8219C41.6314 30.1132 41.2412 31.7304 41.1608 33.3837C41.0843 35.029 41.1447 36.6783 41.1447 38.3558H57.0708C57.0788 37.9455 57.0869 37.5392 57.103 37.1289C57.1995 34.9727 57.6742 32.8648 59.0017 31.1792C59.6453 30.3666 60.5464 29.6787 61.4596 29.2362C63.3624 28.315 65.2893 27.4542 67.2162 26.6013C65.3939 25.8249 63.5474 25.0928 61.7251 24.3043L61.7372 24.3003Z" fill="#2E67A4"/>
<path d="M95.8139 37.9102C95.7214 35.7942 95.2507 33.7185 93.9473 32.0691C93.3158 31.2686 92.4307 30.5928 91.5337 30.1583C88.7097 28.7906 85.8173 27.5918 82.9692 26.2844C81.3159 25.5241 82.2733 22.0887 82.8928 21.0387C83.468 20.0652 83.6129 18.8021 84.0071 17.6918C84.1197 17.378 84.4456 17.1487 84.6749 16.8832C84.8841 16.6378 85.2019 16.4287 85.2904 16.139C85.5719 15.2218 85.7852 14.2805 85.9863 13.3392C86.115 12.7478 86.2196 12.1686 85.6403 11.6697C85.4472 11.5048 85.4875 10.9698 85.5036 10.6037C85.5599 9.02679 85.7288 7.45389 85.7047 5.88099C85.6765 4.03857 84.7634 2.6467 83.3634 1.64101C81.4124 0.241086 79.2844 -0.116939 77.088 0.0278802C74.8915 -0.112916 72.7595 0.245109 70.8124 1.64101C69.4125 2.6467 68.4994 4.03857 68.4712 5.88099C68.4471 7.45389 68.616 9.03081 68.6723 10.6037C68.6844 10.9658 68.7246 11.5048 68.5356 11.6697C67.9563 12.1645 68.0649 12.7438 68.1896 13.3392C68.3907 14.2805 68.608 15.2218 68.8855 16.139C68.974 16.4287 69.2918 16.6378 69.501 16.8832C69.7303 17.1487 70.0562 17.378 70.1688 17.6918C70.563 18.8021 70.7079 20.0652 71.2831 21.0387C71.9026 22.0887 73.202 25.323 71.2067 26.2844C68.3827 27.6401 65.4662 28.7906 62.6422 30.1583C61.7452 30.5928 60.8601 31.2686 60.2286 32.0691C58.9252 33.7225 58.4545 35.7942 58.362 37.9102C58.2695 40.0141 58.3419 42.1301 58.3419 44.2782H95.834C95.834 42.1301 95.9064 40.0181 95.8139 37.9102ZM87.2454 38.401H87.1207L87.0765 38.5216C86.827 39.1975 86.4489 39.8089 85.9541 40.3399C85.6564 40.6577 85.3185 40.9433 84.9565 41.1887C84.6789 41.3738 84.3852 41.5307 84.0875 41.6594C84.0393 41.6795 83.995 41.6956 83.9427 41.7157L83.9065 41.7278C83.8301 41.7559 83.7537 41.7841 83.6732 41.8123C83.629 41.8284 83.5847 41.8404 83.5445 41.8565C82.579 42.1582 81.6055 42.1824 80.6481 41.937C80.4469 41.8847 80.2458 41.8203 80.0246 41.7358L79.9039 41.6916C79.755 41.6353 79.6183 41.5669 79.4775 41.4985C79.4252 41.4743 79.3769 41.4462 79.3246 41.414L79.2442 41.3698C78.0896 40.7342 77.2529 39.7365 76.7541 38.401L76.6897 38.224L76.5046 38.1958C75.7443 38.0751 75.0806 37.7935 74.5254 37.3631C74.091 37.0252 73.6847 36.6309 73.2945 36.2488L73.2181 36.1764C73.1818 36.1402 73.1336 36.0436 73.1296 35.9632C73.1135 35.7339 73.037 35.5327 72.8922 35.3316C71.9428 34.0081 71.2952 32.5076 70.9693 30.8784C70.7803 29.9411 70.7601 29.04 70.905 28.1952C70.9774 27.7728 71.1302 27.4027 71.3636 27.097L71.4722 26.9522L71.4038 26.7832C71.3595 26.6786 71.3435 26.5741 71.3595 26.4735C71.4038 26.1557 71.6773 25.9183 71.9911 25.9183C72.0193 25.9183 72.0474 25.9183 72.0796 25.9264C72.4296 25.9747 72.679 26.2925 72.6348 26.6344C72.5945 26.9401 72.321 27.1855 72.0153 27.1936H71.8704L71.7779 27.3102C71.5084 27.6361 71.3555 28.0504 71.3032 28.5653C71.1584 30.0618 71.4561 31.5904 72.2164 33.2277C72.4457 33.7225 72.7313 34.1891 73.0089 34.6397L73.029 34.6719C73.1094 34.8046 73.1939 34.9374 73.2704 35.0741C73.3468 35.2029 73.4634 35.2672 73.56 35.3195C73.5761 35.3276 73.5962 35.3396 73.6123 35.3517C73.6686 35.3919 73.7289 35.4322 73.7893 35.4724C73.91 35.5488 74.0226 35.6253 74.1031 35.7097C74.6663 36.3011 75.161 36.6792 75.7081 36.9407C76.7943 37.4556 77.8724 37.355 78.9062 36.6309C79.1556 36.458 79.3729 36.2528 79.5941 36.0517C79.7269 35.927 79.8596 35.8063 80.0004 35.6896C80.097 35.6092 80.2177 35.5368 80.3383 35.4644C80.4067 35.4241 80.4751 35.3839 80.5395 35.3396L80.5676 35.3195C80.628 35.2833 80.7165 35.231 80.7808 35.1345C81.875 33.5817 82.5146 32.0088 82.7359 30.3233C82.8043 29.8043 82.8164 29.217 82.7761 28.5331C82.7439 28.0142 82.5911 27.6039 82.3055 27.2821L82.229 27.1976L82.1164 27.1775C81.7745 27.1211 81.525 26.7953 81.5733 26.4654C81.6216 26.1114 81.9474 25.866 82.2934 25.9143C82.6434 25.9626 82.8928 26.2804 82.8485 26.6223C82.8365 26.7028 82.8123 26.7832 82.7681 26.8556L82.6715 27.0286L82.7801 27.1936C82.9893 27.5114 83.1301 27.8975 83.1905 28.34C83.3594 29.5509 83.2066 30.8382 82.7319 32.2743C82.3658 33.3725 81.8388 34.4144 81.163 35.3759C81.0825 35.4925 81.0463 35.6172 81.0222 35.7218C81.0142 35.754 81.0061 35.7902 80.994 35.8184C80.978 35.8666 80.9619 35.9229 80.9458 35.9752C80.9337 36.0275 80.9096 36.108 80.8935 36.1321C79.9682 37.2142 79.0269 37.8498 77.9287 38.1194C77.9005 38.1274 77.8724 38.1314 77.8442 38.1355C77.808 38.1395 77.7718 38.1475 77.7356 38.1556C77.6914 38.1676 77.6431 38.1797 77.5908 38.1918L77.1845 38.3004L77.3333 38.6423C77.8684 39.8652 78.8378 40.7865 80.1412 41.3094C80.8291 41.5789 81.5452 41.6916 82.2733 41.6433H82.3095C82.4463 41.6312 82.579 41.6151 82.7118 41.591C82.7681 41.583 82.8244 41.5709 82.8888 41.5628C82.9572 41.5508 83.0255 41.5347 83.0899 41.5186C84.5502 41.1726 85.8012 40.2032 86.4449 38.9199C86.4932 38.8274 86.5334 38.7308 86.5817 38.6061L86.6782 38.3688L86.469 38.3165C85.1455 37.9947 84.2203 36.82 84.2203 35.4603C84.2203 34.2575 84.9404 33.1875 86.0587 32.7329C86.3725 32.5921 86.6983 32.5157 87.0282 32.4996C88.6091 32.4312 89.9246 33.5616 90.0935 35.1425C90.1056 35.2391 90.1056 35.3356 90.1096 35.4603C90.1096 37.0614 88.8545 38.3527 87.2535 38.401H87.2454Z" fill="#565555"/>
<path d="M89.3686 35.5334C89.4141 34.3101 88.4611 33.2816 87.24 33.2362C86.0189 33.1908 84.9921 34.1457 84.9466 35.369C84.9011 36.5923 85.8542 37.6208 87.0752 37.6662C88.2963 37.7116 89.3231 36.7568 89.3686 35.5334Z" fill="#565555"/>
</g>
<defs>
<clipPath id="clip0_101_953">
<rect width="147.736" height="70" fill="white"/>
</clipPath>
</defs>
</svg>
