<svg width="17" height="17" viewBox="0 0 17 17" fill="none" xmlns="http://www.w3.org/2000/svg">
<path d="M4.86719 6.16675L6.82853 7.32635C7.97199 8.00241 8.42905 8.00241 9.57252 7.32635L11.5339 6.16675" stroke="white" stroke-linecap="round" stroke-linejoin="round"/>
<path d="M1.54176 9.48367C1.58535 11.5273 1.60713 12.5492 2.36122 13.3061C3.11531 14.0631 4.16481 14.0895 6.26381 14.1422C7.55745 14.1747 8.83839 14.1747 10.1321 14.1422C12.2311 14.0895 13.2805 14.0631 14.0346 13.3061C14.7887 12.5492 14.8105 11.5273 14.8541 9.48367C14.8681 8.82654 14.8681 8.17327 14.8541 7.51621C14.8105 5.47249 14.7887 4.45065 14.0346 3.69369C13.2805 2.93674 12.2311 2.91037 10.1321 2.85763C8.83839 2.82513 7.55745 2.82513 6.2638 2.85763C4.16481 2.91036 3.11531 2.93673 2.36122 3.69369C1.60713 4.45064 1.58534 5.47249 1.54176 7.51614C1.52775 8.17327 1.52775 8.82654 1.54176 9.48367Z" stroke="white" stroke-linejoin="round"/>
</svg>
