<svg width="40" height="40" viewBox="0 0 40 40" fill="none" xmlns="http://www.w3.org/2000/svg">
<path d="M5.53125 1.0467C4.98437 1.19514 4.55469 1.51545 4.3125 1.95295C4.14062 2.28108 4.04687 2.3592 3.78906 2.42952C2.60156 2.75764 1.67969 3.74983 1.41406 4.9842C1.35937 5.26545 1.32812 6.82795 1.32812 9.84358V14.2967H0.664062H0V15.2967C0 17.0155 0.296875 18.2811 1.02344 19.6873C2.17187 21.9061 4.21875 23.617 6.70312 24.4217L7.32812 24.617L7.35937 25.9217C7.39062 27.0311 7.42187 27.2889 7.57031 27.6717C7.82031 28.3201 8.375 28.7889 9.0625 28.9373L9.26562 28.9764L9.35156 30.328C9.41406 31.2655 9.50781 31.9139 9.64062 32.4451C10.4375 35.5545 12.7266 37.953 15.7031 38.7811C15.9375 38.8514 16.4766 38.9373 16.8984 38.9842C21.4062 39.4451 25.4453 35.8905 25.9375 31.0233C25.9844 30.5311 26.0156 27.5311 26.0156 23.367C26.0156 16.7967 26.0234 16.4842 26.1719 15.9061C26.6953 13.8358 28.3984 12.4217 30.3516 12.4217C31.4297 12.4217 32.3125 12.7967 33.1719 13.6092C33.5781 13.9998 33.8203 14.3123 34.0469 14.7498C34.4766 15.578 34.6094 16.117 34.6641 17.3123L34.7109 18.328L34.2812 18.4295C33.1953 18.6717 32.125 19.4061 31.4922 20.3514C30.125 22.3983 30.5625 25.203 32.4766 26.6326C34.4766 28.1326 37.1406 27.8983 38.7891 26.0701C40.4609 24.2264 40.375 21.4608 38.5937 19.6873C37.9687 19.0545 37.2187 18.6248 36.4375 18.4451L36.0391 18.3514L35.9922 17.242C35.9375 16.0545 35.8203 15.4373 35.5 14.6717C34.8281 13.078 33.5312 11.8514 31.9531 11.328C31.25 11.0936 29.9219 11.0311 29.1953 11.203C27.1953 11.6717 25.6328 13.1873 24.9141 15.3514L24.7266 15.8983L24.6797 23.5545C24.6328 31.7264 24.6484 31.4764 24.25 32.6951C24.0391 33.328 23.5234 34.2967 23.0781 34.8826C19.9141 39.0936 13.8984 38.4686 11.5156 33.6873C10.9375 32.5155 10.7656 31.8045 10.7266 30.2967L10.6797 28.992L10.9062 28.9451C11.6328 28.7811 12.1719 28.3358 12.4297 27.6717C12.5781 27.2889 12.6094 27.0311 12.6406 25.9217L12.6719 24.617L13.2969 24.4217C15.7812 23.617 17.8281 21.9061 18.9766 19.6873C19.7031 18.2811 20 17.0155 20 15.2967V14.2967H19.3359H18.6719V10.0155C18.6719 7.57014 18.6328 5.50764 18.5937 5.19514C18.4844 4.46858 18.2187 3.9217 17.7187 3.39045C17.2578 2.89827 16.8437 2.63264 16.2812 2.46077C15.9453 2.3592 15.8672 2.28889 15.6641 1.93733C14.9219 0.648266 12.9531 0.726391 12.2422 2.06233C12.0078 2.51545 12.0078 3.4217 12.2422 3.87483C12.4453 4.25764 12.8672 4.64045 13.2578 4.80452C13.6406 4.96858 14.4219 4.95295 14.8125 4.77327C15.1562 4.61702 15.6719 4.13264 15.75 3.89045C15.8516 3.57014 16.5391 3.96077 16.9844 4.59358C17.1875 4.88264 17.2187 5.00764 17.2734 5.71858C17.3047 6.16389 17.3359 8.27326 17.3359 10.4061L17.3437 14.2967H16.6875H16.0391L15.9922 15.367C15.9375 16.578 15.8125 17.1326 15.4219 17.9373C14.2187 20.3983 11.1484 21.5467 8.32031 20.6014C6.92187 20.1405 5.71875 19.0467 5.125 17.7108C4.82031 17.0155 4.6875 16.2733 4.6875 15.242V14.2967H3.67187H2.64844L2.67187 9.70295L2.69531 5.11702L2.92969 4.68733C3.16406 4.25764 3.77344 3.74983 4.05469 3.74983C4.125 3.74983 4.25781 3.89045 4.35937 4.07014C4.71875 4.69514 5.64844 5.07795 6.40625 4.91389C7.71875 4.63264 8.39844 3.19514 7.77344 2.03889C7.32031 1.21858 6.39844 0.804516 5.53125 1.0467ZM6.46875 2.52327C6.85937 2.88264 6.55469 3.59358 6 3.59358C5.85937 3.59358 5.67969 3.5467 5.60937 3.4842C5.23437 3.20295 5.30469 2.56233 5.73437 2.37483C6.01562 2.25764 6.21875 2.2967 6.46875 2.52327ZM14.25 2.37483C14.5234 2.49202 14.7187 2.8592 14.6328 3.1092C14.4609 3.60139 13.8984 3.74983 13.5547 3.39827C13.1641 3.01545 13.375 2.43733 13.9687 2.27327C13.9766 2.26545 14.1094 2.31233 14.25 2.37483ZM3.35937 15.9764C3.35937 17.3983 4.19531 19.203 5.35937 20.3201C6.70312 21.5936 8.10156 22.1717 10.0391 22.242C11.5937 22.3045 12.9062 21.9764 14.1328 21.2342C15.9219 20.1561 17.0937 18.2811 17.3047 16.1873L17.3594 15.6248H18.0234H18.6953L18.6406 16.2186C18.3594 19.2967 16.2187 21.9686 13.1406 23.078C10.8828 23.8826 8 23.7342 5.92187 22.6873C4.77344 22.117 3.58594 21.117 2.80469 20.078C2.04687 19.0701 1.48437 17.5545 1.35937 16.2186L1.30469 15.6248H2.33594H3.35937V15.9764ZM36.3437 19.8045C36.8359 19.9451 37.4844 20.3748 37.8359 20.7889C39.2656 22.4608 38.7109 25.0311 36.7266 25.9686C36.2969 26.1639 36.0937 26.2108 35.5 26.2342C34.4922 26.2811 33.7812 26.0311 33.0937 25.3983C31.3828 23.8123 31.7969 20.9764 33.8828 19.9842C34.6875 19.6014 35.4531 19.5467 36.3437 19.8045ZM11.3281 25.7655C11.3281 26.7576 11.2266 27.2655 11 27.4764C10.7656 27.6873 9.23437 27.6873 9 27.4764C8.77344 27.2655 8.67187 26.7576 8.67187 25.7655V24.8826H10H11.3281V25.7655Z" fill="#289A7B"/>
</svg>
